<?xml version="1.0" encoding="UTF-8"?><svg xmlns="http://www.w3.org/2000/svg" xmlns:xlink="http://www.w3.org/1999/xlink" contentScriptType="text/ecmascript" width="375" zoomAndPan="magnify" contentStyleType="text/css" viewBox="0 0 375 374.999991" height="374.999991" preserveAspectRatio="xMidYMid meet" version="1.0"><defs><clipPath id="clip-0"><path d="M 0 0 L 374.953125 0 L 374.953125 374.25 L 0 374.25 Z M 0 0 " clip-rule="nonzero"/></clipPath></defs><g clip-path="url(#clip-0)"><path fill="rgb(9.408569%, 19.60907%, 24.708557%)" d="M 374.722656 187.117188 C 374.722656 290.46875 290.875 374.253906 187.445312 374.253906 C 84.015625 374.253906 0.167969 290.46875 0.167969 187.117188 C 0.167969 83.765625 84.015625 -0.0195312 187.445312 -0.0195312 C 290.875 -0.0195312 374.722656 83.765625 374.722656 187.117188 " fill-opacity="1" fill-rule="nonzero"/></g><path fill="rgb(7.839966%, 11.759949%, 12.939453%)" d="M 366.792969 241.128906 L 304.71875 179.101562 L 220.992188 99.804688 L 153.585938 99.804688 L 98.71875 180.425781 L 146.019531 270.921875 L 241.496094 366.328125 C 301.457031 348.296875 348.746094 301.046875 366.792969 241.128906 " fill-opacity="1" fill-rule="nonzero"/><path fill="rgb(64.309692%, 84.309387%, 11.369324%)" d="M 212.828125 270.921875 L 202.488281 260.589844 C 197.808594 255.910156 197.808594 248.324219 202.488281 243.648438 L 250.128906 196.042969 C 254.8125 191.363281 254.8125 183.78125 250.128906 179.101562 L 201.578125 130.589844 C 196.894531 125.910156 196.894531 118.324219 201.578125 113.644531 L 211.917969 103.3125 C 216.601562 98.636719 224.191406 98.636719 228.871094 103.3125 L 304.71875 179.101562 C 309.398438 183.78125 309.398438 191.363281 304.71875 196.042969 L 229.78125 270.921875 C 225.101562 275.601562 217.511719 275.601562 212.828125 270.921875 " fill-opacity="1" fill-rule="nonzero"/><path fill="rgb(64.309692%, 84.309387%, 11.369324%)" d="M 162.0625 103.3125 L 172.402344 113.644531 C 177.085938 118.324219 177.085938 125.910156 172.402344 130.589844 L 124.761719 178.191406 C 120.082031 182.871094 120.082031 190.457031 124.761719 195.132812 L 173.3125 243.648438 C 177.996094 248.324219 177.996094 255.910156 173.3125 260.589844 L 162.972656 270.921875 C 158.292969 275.601562 150.699219 275.601562 146.019531 270.921875 L 70.175781 195.132812 C 65.492188 190.457031 65.492188 182.871094 70.175781 178.191406 L 145.109375 103.3125 C 149.792969 98.636719 157.382812 98.636719 162.0625 103.3125 " fill-opacity="1" fill-rule="nonzero"/></svg>