<?xml version="1.0" encoding="UTF-8"?><svg xmlns="http://www.w3.org/2000/svg" xmlns:xlink="http://www.w3.org/1999/xlink" contentScriptType="text/ecmascript" width="375" zoomAndPan="magnify" contentStyleType="text/css" viewBox="0 0 375 374.999991" height="374.999991" preserveAspectRatio="xMidYMid meet" version="1.0"><defs><clipPath id="clip-0"><path d="M 84.578125 183 L 287.382812 183 L 287.382812 270.550781 L 84.578125 270.550781 Z M 84.578125 183 " clip-rule="nonzero"/></clipPath><clipPath id="clip-1"><path d="M 87.101562 144.621094 L 290.078125 144.621094 L 290.078125 232.160156 L 87.101562 232.160156 Z M 87.101562 144.621094 " clip-rule="nonzero"/></clipPath><clipPath id="clip-2"><path d="M 87.101562 104.21875 L 290.078125 104.21875 L 290.078125 191.757812 L 87.101562 191.757812 Z M 87.101562 104.21875 " clip-rule="nonzero"/></clipPath><clipPath id="clip-3"><path d="M 178 104.132812 L 223 104.132812 L 223 113 L 178 113 Z M 178 104.132812 " clip-rule="nonzero"/></clipPath><clipPath id="clip-4"><path d="M 87 104.132812 L 223 104.132812 L 223 135 L 87 135 Z M 87 104.132812 " clip-rule="nonzero"/></clipPath></defs><g clip-path="url(#clip-0)"><path fill="rgb(36.468506%, 52.159119%, 74.119568%)" d="M 85.171875 210.089844 L 175.84375 183.308594 L 279.898438 202.316406 C 279.898438 202.316406 293.714844 217.859375 283.503906 237.511719 C 259.757812 246.578125 199.160156 270.550781 199.160156 270.550781 L 85.171875 248.523438 C 85.171875 248.523438 82.582031 245.929688 88.195312 244.636719 C 88.195312 237.078125 88.195312 213.539062 88.195312 213.539062 C 88.195312 213.539062 84.308594 212.679688 85.171875 210.089844 " fill-opacity="1" fill-rule="nonzero"/></g><path fill="rgb(24.708557%, 34.899902%, 51.368713%)" d="M 203.285156 265.511719 C 213.871094 246.925781 202.816406 231.09375 202.816406 231.09375 C 202.816406 231.09375 220.109375 225.0625 228.910156 221.730469 L 230.707031 221.382812 C 240.097656 239.769531 232.980469 253.863281 232.980469 253.863281 L 203.285156 265.511719 " fill-opacity="1" fill-rule="nonzero"/><path fill="rgb(94.898987%, 94.898987%, 94.898987%)" d="M 87.445312 213.539062 L 87.445312 244.636719 L 198.261719 265.367188 C 198.261719 265.367188 209.5625 252.839844 198.261719 231.679688 C 151.328125 222.609375 87.445312 213.539062 87.445312 213.539062 " fill-opacity="1" fill-rule="nonzero"/><path fill="rgb(85.488892%, 85.099792%, 84.309387%)" d="M 198.261719 265.367188 L 87.445312 244.636719 L 87.445312 213.539062 C 87.445312 213.539062 119.648438 218.113281 155.121094 224.007812 C 167 228.691406 175.496094 232.050781 175.496094 232.050781 L 187.714844 229.691406 C 191.296875 230.351562 194.828125 231.015625 198.261719 231.679688 C 202.03125 238.738281 203.285156 244.835938 203.285156 249.824219 C 203.28125 259.800781 198.261719 265.367188 198.261719 265.367188 " fill-opacity="1" fill-rule="nonzero"/><g clip-path="url(#clip-1)"><path fill="rgb(92.549133%, 70.199585%, 28.239441%)" d="M 289.484375 172.996094 L 198.8125 144.8125 L 94.757812 163.816406 C 94.757812 163.816406 80.941406 179.363281 91.152344 199.011719 C 114.898438 208.082031 175.496094 232.050781 175.496094 232.050781 L 289.484375 210.027344 C 289.484375 210.027344 292.074219 207.433594 286.460938 206.140625 C 286.460938 198.582031 286.460938 176.066406 286.460938 176.066406 C 286.460938 176.066406 290.347656 175.589844 289.484375 172.996094 " fill-opacity="1" fill-rule="nonzero"/></g><path fill="rgb(94.898987%, 94.898987%, 94.898987%)" d="M 286.929688 206.140625 L 175.140625 228.390625 L 94.355469 196.804688 C 94.355469 196.804688 86.851562 182.890625 96.859375 167.566406 C 112.800781 173.820312 176.550781 194.773438 176.550781 194.773438 L 286.929688 175.980469 L 286.929688 206.140625 " fill-opacity="1" fill-rule="nonzero"/><path fill="rgb(85.488892%, 85.099792%, 84.309387%)" d="M 175.140625 228.390625 L 94.355469 196.804688 C 94.355469 196.804688 91.652344 191.792969 91.65625 184.472656 C 91.65625 180.457031 92.472656 175.746094 94.992188 170.78125 L 118.632812 175.351562 C 143.128906 183.789062 176.550781 194.773438 176.550781 194.773438 L 175.140625 228.390625 " fill-opacity="1" fill-rule="nonzero"/><g clip-path="url(#clip-2)"><path fill="rgb(27.839661%, 67.83905%, 58.81958%)" d="M 87.988281 130.992188 L 178.65625 104.21875 L 282.710938 123.21875 C 282.710938 123.21875 296.53125 138.765625 286.320312 158.414062 C 262.570312 167.488281 201.972656 191.453125 201.972656 191.453125 L 87.988281 169.429688 C 87.988281 169.429688 85.398438 166.835938 91.007812 165.542969 C 91.007812 157.984375 91.007812 134.449219 91.007812 134.449219 C 91.007812 134.449219 87.125 133.585938 87.988281 130.992188 " fill-opacity="1" fill-rule="nonzero"/></g><g clip-path="url(#clip-3)"><path fill="rgb(100%, 100%, 100%)" d="M 222.261719 112.179688 L 178.65625 104.21875 L 222.261719 112.179688 " fill-opacity="1" fill-rule="nonzero"/></g><g clip-path="url(#clip-4)"><path fill="rgb(38.42926%, 74.899292%, 66.268921%)" d="M 91.007812 134.449219 C 91.007812 134.449219 87.859375 133.746094 87.863281 131.714844 C 87.863281 131.492188 87.902344 131.25 87.988281 130.992188 L 178.65625 104.21875 L 222.261719 112.179688 L 91.007812 134.449219 " fill-opacity="1" fill-rule="nonzero"/></g><path fill="rgb(94.898987%, 94.898987%, 94.898987%)" d="M 90.261719 134.449219 L 90.261719 165.542969 L 201.078125 186.269531 C 201.078125 186.269531 212.375 173.746094 201.078125 152.585938 C 154.144531 143.515625 90.261719 134.449219 90.261719 134.449219 " fill-opacity="1" fill-rule="nonzero"/><path fill="rgb(61.959839%, 85.879517%, 78.42865%)" d="M 206.097656 186.269531 C 216.683594 167.683594 205.628906 151.851562 205.628906 151.851562 C 205.628906 151.851562 225.640625 144.8125 234.152344 142.46875 C 243.765625 160.992188 235.792969 175.042969 235.792969 175.042969 L 206.097656 186.269531 " fill-opacity="1" fill-rule="nonzero"/></svg>