<?xml version="1.0" encoding="UTF-8"?><svg xmlns="http://www.w3.org/2000/svg" xmlns:xlink="http://www.w3.org/1999/xlink" contentScriptType="text/ecmascript" width="375" zoomAndPan="magnify" contentStyleType="text/css" viewBox="0 0 375 374.999991" height="374.999991" preserveAspectRatio="xMidYMid meet" version="1.0"><defs><clipPath id="clip-0"><path d="M 118.398438 91.359375 L 256.398438 91.359375 L 256.398438 283.359375 L 118.398438 283.359375 Z M 118.398438 91.359375 " clip-rule="nonzero"/></clipPath><clipPath id="clip-1"><path d="M 226 115 L 256.398438 115 L 256.398438 122 L 226 122 Z M 226 115 " clip-rule="nonzero"/></clipPath><clipPath id="clip-2"><path d="M 226 91.359375 L 233 91.359375 L 233 122 L 226 122 Z M 226 91.359375 " clip-rule="nonzero"/></clipPath></defs><path fill="rgb(90.19928%, 91.369629%, 92.939758%)" d="M 196.367188 175.390625 C 199.667969 175.390625 202.367188 178.089844 202.367188 181.390625 C 202.367188 184.691406 199.667969 187.390625 196.367188 187.390625 C 193.039062 187.390625 190.367188 184.691406 190.367188 181.390625 C 190.367188 178.089844 193.039062 175.390625 196.367188 175.390625 Z M 196.367188 175.390625 " fill-opacity="1" fill-rule="nonzero"/><path fill="rgb(67.449951%, 57.249451%, 92.549133%)" d="M 226.425781 175.390625 C 226.425781 153.878906 208.972656 136.390625 187.429688 136.390625 C 165.890625 136.390625 148.429688 153.878906 148.429688 175.390625 C 148.429688 196.933594 165.890625 214.390625 187.429688 214.390625 C 208.96875 214.390625 226.425781 196.929688 226.425781 175.390625 Z M 235.398438 175.390625 C 235.398438 201.910156 213.917969 223.390625 187.429688 223.390625 C 160.941406 223.390625 139.460938 201.910156 139.460938 175.390625 C 139.460938 148.898438 160.941406 127.417969 187.429688 127.417969 C 213.917969 127.417969 235.398438 148.898438 235.398438 175.390625 Z M 235.398438 175.390625 " fill-opacity="1" fill-rule="nonzero"/><path fill="rgb(90.19928%, 91.369629%, 92.939758%)" d="M 172.371094 181.390625 C 175.695312 181.390625 178.371094 184.0625 178.371094 187.390625 C 178.371094 190.691406 175.695312 193.390625 172.371094 193.390625 C 169.066406 193.390625 166.371094 190.691406 166.371094 187.390625 C 166.371094 184.058594 169.070312 181.390625 172.371094 181.390625 Z M 172.371094 181.390625 " fill-opacity="1" fill-rule="nonzero"/><path fill="rgb(58.81958%, 47.839355%, 86.268616%)" d="M 178.371094 187.390625 C 178.371094 184.0625 175.695312 181.390625 172.371094 181.390625 C 169.066406 181.390625 166.371094 184.0625 166.371094 187.390625 C 166.371094 190.691406 169.066406 193.390625 172.371094 193.390625 C 175.699219 193.390625 178.371094 190.691406 178.371094 187.390625 Z M 202.367188 181.390625 C 202.367188 178.089844 199.667969 175.390625 196.367188 175.390625 C 193.039062 175.390625 190.367188 178.089844 190.367188 181.390625 C 190.367188 184.691406 193.039062 187.390625 196.367188 187.390625 C 199.667969 187.390625 202.367188 184.691406 202.367188 181.390625 Z M 226.425781 175.390625 C 226.425781 196.933594 208.972656 214.390625 187.429688 214.390625 C 165.890625 214.390625 148.429688 196.933594 148.429688 175.390625 C 148.429688 153.878906 165.890625 136.390625 187.429688 136.390625 C 208.96875 136.390625 226.425781 153.878906 226.425781 175.390625 Z M 226.425781 175.390625 " fill-opacity="1" fill-rule="nonzero"/><path fill="rgb(90.19928%, 91.369629%, 92.939758%)" d="M 253.398438 118.539062 L 253.398438 280.359375 L 121.402344 280.359375 L 121.402344 94.359375 L 229.398438 94.359375 L 229.398438 118.539062 Z M 187.429688 223.390625 C 213.917969 223.390625 235.398438 201.910156 235.398438 175.390625 C 235.398438 148.898438 213.917969 127.417969 187.429688 127.417969 C 160.941406 127.417969 139.460938 148.898438 139.460938 175.390625 C 139.460938 201.910156 160.941406 223.390625 187.429688 223.390625 Z M 187.429688 223.390625 " fill-opacity="1" fill-rule="nonzero"/><path fill="rgb(96.078491%, 96.859741%, 98.039246%)" d="M 229.398438 94.359375 L 253.398438 118.539062 L 229.398438 118.539062 Z M 229.398438 94.359375 " fill-opacity="1" fill-rule="nonzero"/><g clip-path="url(#clip-0)"><path fill="rgb(0%, 0%, 0%)" d="M 253.40625 283.359375 L 121.394531 283.359375 C 119.734375 283.359375 118.394531 282.019531 118.394531 280.359375 L 118.394531 94.359375 C 118.394531 92.699219 119.734375 91.359375 121.394531 91.359375 L 229.394531 91.359375 C 230.195312 91.359375 230.957031 91.679688 231.523438 92.246094 L 255.535156 116.4375 C 256.09375 116.996094 256.40625 117.757812 256.40625 118.546875 L 256.40625 280.359375 C 256.40625 282.019531 255.066406 283.359375 253.40625 283.359375 Z M 124.394531 277.359375 L 250.40625 277.359375 L 250.40625 119.785156 L 228.148438 97.359375 L 124.394531 97.359375 Z M 124.394531 277.359375 " fill-opacity="1" fill-rule="nonzero"/></g><g clip-path="url(#clip-1)"><path fill="rgb(0%, 0%, 0%)" d="M 253.40625 121.546875 L 229.394531 121.546875 C 227.734375 121.546875 226.394531 120.207031 226.394531 118.546875 C 226.394531 116.890625 227.734375 115.546875 229.394531 115.546875 L 253.40625 115.546875 C 255.066406 115.546875 256.40625 116.890625 256.40625 118.546875 C 256.40625 120.207031 255.066406 121.546875 253.40625 121.546875 Z M 253.40625 121.546875 " fill-opacity="1" fill-rule="nonzero"/></g><g clip-path="url(#clip-2)"><path fill="rgb(0%, 0%, 0%)" d="M 229.394531 121.546875 C 227.734375 121.546875 226.394531 120.207031 226.394531 118.546875 L 226.394531 94.359375 C 226.394531 92.699219 227.734375 91.359375 229.394531 91.359375 C 231.054688 91.359375 232.394531 92.699219 232.394531 94.359375 L 232.394531 118.546875 C 232.394531 120.203125 231.054688 121.546875 229.394531 121.546875 Z M 229.394531 121.546875 " fill-opacity="1" fill-rule="nonzero"/></g><path fill="rgb(0%, 0%, 0%)" d="M 187.433594 226.378906 C 159.328125 226.378906 136.457031 203.511719 136.457031 175.40625 C 136.457031 147.296875 159.328125 124.429688 187.433594 124.429688 C 215.539062 124.429688 238.40625 147.296875 238.40625 175.40625 C 238.40625 203.511719 215.539062 226.378906 187.433594 226.378906 Z M 187.433594 130.425781 C 162.632812 130.425781 142.457031 150.605469 142.457031 175.402344 C 142.457031 200.199219 162.636719 220.378906 187.433594 220.378906 C 212.230469 220.378906 232.40625 200.199219 232.40625 175.402344 C 232.40625 150.605469 212.230469 130.425781 187.433594 130.425781 Z M 187.433594 130.425781 " fill-opacity="1" fill-rule="nonzero"/><path fill="rgb(0%, 0%, 0%)" d="M 187.433594 217.40625 C 164.273438 217.40625 145.433594 198.566406 145.433594 175.40625 C 145.433594 152.246094 164.273438 133.40625 187.433594 133.40625 C 210.589844 133.40625 229.429688 152.246094 229.429688 175.40625 C 229.429688 198.566406 210.589844 217.40625 187.433594 217.40625 Z M 187.433594 139.40625 C 167.582031 139.40625 151.433594 155.554688 151.433594 175.40625 C 151.433594 195.253906 167.582031 211.40625 187.433594 211.40625 C 207.28125 211.40625 223.429688 195.253906 223.429688 175.40625 C 223.429688 155.554688 207.28125 139.40625 187.433594 139.40625 Z M 187.433594 139.40625 " fill-opacity="1" fill-rule="nonzero"/><path fill="rgb(0%, 0%, 0%)" d="M 172.375 196.390625 C 167.414062 196.390625 163.375 192.351562 163.375 187.390625 C 163.375 182.429688 167.414062 178.390625 172.375 178.390625 C 177.335938 178.390625 181.375 182.429688 181.375 187.390625 C 181.375 192.351562 177.335938 196.390625 172.375 196.390625 Z M 172.375 184.390625 C 170.71875 184.390625 169.375 185.734375 169.375 187.390625 C 169.375 189.046875 170.71875 190.390625 172.375 190.390625 C 174.03125 190.390625 175.375 189.046875 175.375 187.390625 C 175.375 185.734375 174.03125 184.390625 172.375 184.390625 Z M 172.375 184.390625 " fill-opacity="1" fill-rule="nonzero"/><path fill="rgb(0%, 0%, 0%)" d="M 196.367188 190.390625 C 191.402344 190.390625 187.367188 186.351562 187.367188 181.390625 C 187.367188 176.429688 191.402344 172.390625 196.367188 172.390625 C 201.328125 172.390625 205.367188 176.429688 205.367188 181.390625 C 205.367188 186.351562 201.332031 190.390625 196.367188 190.390625 Z M 196.367188 178.390625 C 194.710938 178.390625 193.367188 179.734375 193.367188 181.390625 C 193.367188 183.046875 194.710938 184.390625 196.367188 184.390625 C 198.023438 184.390625 199.367188 183.046875 199.367188 181.390625 C 199.367188 179.734375 198.023438 178.390625 196.367188 178.390625 Z M 196.367188 178.390625 " fill-opacity="1" fill-rule="nonzero"/><path fill="rgb(0%, 0%, 0%)" d="M 178.375 190.390625 C 176.714844 190.390625 175.375 189.046875 175.375 187.390625 L 175.375 160.386719 C 175.375 158.726562 176.714844 157.386719 178.375 157.386719 C 180.035156 157.386719 181.375 158.726562 181.375 160.386719 L 181.375 187.390625 C 181.375 189.046875 180.035156 190.390625 178.375 190.390625 Z M 178.375 190.390625 " fill-opacity="1" fill-rule="nonzero"/><path fill="rgb(0%, 0%, 0%)" d="M 202.367188 184.390625 C 200.707031 184.390625 199.367188 183.046875 199.367188 181.390625 L 199.367188 154.390625 C 199.367188 152.730469 200.707031 151.390625 202.367188 151.390625 C 204.023438 151.390625 205.367188 152.730469 205.367188 154.390625 L 205.367188 181.390625 C 205.367188 183.046875 204.023438 184.390625 202.367188 184.390625 Z M 202.367188 184.390625 " fill-opacity="1" fill-rule="nonzero"/><path fill="rgb(0%, 0%, 0%)" d="M 178.371094 163.386719 C 177.027344 163.386719 175.808594 162.476562 175.464844 161.113281 C 175.0625 159.507812 176.039062 157.878906 177.648438 157.476562 L 201.640625 151.480469 C 203.238281 151.070312 204.875 152.054688 205.277344 153.664062 C 205.679688 155.269531 204.703125 156.898438 203.089844 157.300781 L 179.101562 163.296875 C 178.859375 163.355469 178.613281 163.386719 178.371094 163.386719 Z M 178.371094 163.386719 " fill-opacity="1" fill-rule="nonzero"/><path fill="rgb(0%, 0%, 0%)" d="M 235.40625 241.363281 L 139.457031 241.363281 C 137.800781 241.363281 136.457031 240.023438 136.457031 238.363281 C 136.457031 236.703125 137.800781 235.363281 139.457031 235.363281 L 235.40625 235.363281 C 237.066406 235.363281 238.40625 236.703125 238.40625 238.363281 C 238.40625 240.023438 237.066406 241.363281 235.40625 241.363281 Z M 235.40625 241.363281 " fill-opacity="1" fill-rule="nonzero"/><path fill="rgb(0%, 0%, 0%)" d="M 235.40625 250.359375 L 139.457031 250.359375 C 137.800781 250.359375 136.457031 249.019531 136.457031 247.359375 C 136.457031 245.699219 137.800781 244.359375 139.457031 244.359375 L 235.40625 244.359375 C 237.066406 244.359375 238.40625 245.699219 238.40625 247.359375 C 238.40625 249.019531 237.066406 250.359375 235.40625 250.359375 Z M 235.40625 250.359375 " fill-opacity="1" fill-rule="nonzero"/><path fill="rgb(0%, 0%, 0%)" d="M 211.394531 259.355469 L 163.464844 259.355469 C 161.808594 259.355469 160.464844 258.015625 160.464844 256.355469 C 160.464844 254.699219 161.808594 253.355469 163.464844 253.355469 L 211.394531 253.355469 C 213.054688 253.355469 214.394531 254.699219 214.394531 256.355469 C 214.394531 258.015625 213.054688 259.355469 211.394531 259.355469 Z M 211.394531 259.355469 " fill-opacity="1" fill-rule="nonzero"/></svg>