<?xml version="1.0" encoding="UTF-8"?><svg xmlns="http://www.w3.org/2000/svg" xmlns:xlink="http://www.w3.org/1999/xlink" contentScriptType="text/ecmascript" width="375" zoomAndPan="magnify" contentStyleType="text/css" viewBox="0 0 375 374.999991" height="374.999991" preserveAspectRatio="xMidYMid meet" version="1.0"><defs><clipPath id="clip-0"><path d="M 84.578125 95.511719 L 290 95.511719 L 290 279.261719 L 84.578125 279.261719 Z M 84.578125 95.511719 " clip-rule="nonzero"/></clipPath></defs><g clip-path="url(#clip-0)"><path fill="rgb(73.329163%, 87.059021%, 98.429871%)" d="M 289.964844 273.859375 C 289.964844 276.847656 287.550781 279.261719 284.5625 279.261719 L 90.089844 279.261719 C 87.101562 279.261719 84.6875 276.847656 84.6875 273.859375 L 84.6875 100.917969 C 84.6875 97.929688 87.101562 95.511719 90.089844 95.511719 L 284.5625 95.511719 C 287.550781 95.511719 289.964844 97.929688 289.964844 100.917969 Z M 289.964844 273.859375 " fill-opacity="1" fill-rule="nonzero"/></g><path fill="rgb(39.219666%, 70.979309%, 96.469116%)" d="M 144.109375 214.410156 L 106.296875 214.410156 L 106.296875 252.238281 L 144.109375 252.238281 Z M 144.109375 214.410156 " fill-opacity="1" fill-rule="nonzero"/><path fill="rgb(9.799194%, 46.269226%, 82.348633%)" d="M 106.296875 138.746094 L 149.511719 138.746094 L 149.511719 149.554688 L 106.296875 149.554688 Z M 106.296875 138.746094 " fill-opacity="1" fill-rule="nonzero"/><path fill="rgb(9.799194%, 46.269226%, 82.348633%)" d="M 106.296875 176.578125 L 149.511719 176.578125 L 149.511719 187.386719 L 106.296875 187.386719 Z M 106.296875 176.578125 " fill-opacity="1" fill-rule="nonzero"/><path fill="rgb(9.799194%, 46.269226%, 82.348633%)" d="M 160.316406 225.21875 L 268.355469 225.21875 L 268.355469 236.027344 L 160.316406 236.027344 Z M 160.316406 225.21875 " fill-opacity="1" fill-rule="nonzero"/><path fill="rgb(100%, 100%, 100%)" d="M 268.355469 149.554688 C 268.355469 152.539062 265.941406 154.960938 262.953125 154.960938 L 176.523438 154.960938 C 173.539062 154.960938 171.121094 152.539062 171.121094 149.554688 L 171.121094 138.746094 C 171.121094 135.765625 173.539062 133.34375 176.523438 133.34375 L 262.953125 133.34375 C 265.941406 133.34375 268.355469 135.765625 268.355469 138.746094 Z M 268.355469 149.554688 " fill-opacity="1" fill-rule="nonzero"/><path fill="rgb(100%, 100%, 100%)" d="M 268.355469 187.386719 C 268.355469 190.371094 265.941406 192.792969 262.953125 192.792969 L 176.523438 192.792969 C 173.539062 192.792969 171.121094 190.371094 171.121094 187.386719 L 171.121094 176.578125 C 171.121094 173.59375 173.539062 171.175781 176.523438 171.175781 L 262.953125 171.175781 C 265.941406 171.175781 268.355469 173.59375 268.355469 176.578125 Z M 268.355469 187.386719 " fill-opacity="1" fill-rule="nonzero"/><path fill="rgb(98.039246%, 98.039246%, 98.039246%)" d="M 117.101562 225.21875 L 133.304688 225.21875 L 133.304688 241.429688 L 117.101562 241.429688 Z M 117.101562 225.21875 " fill-opacity="1" fill-rule="nonzero"/></svg>