<?xml version="1.0" encoding="UTF-8"?><svg xmlns="http://www.w3.org/2000/svg" xmlns:xlink="http://www.w3.org/1999/xlink" contentScriptType="text/ecmascript" width="375" zoomAndPan="magnify" contentStyleType="text/css" viewBox="0 0 375 374.999991" height="374.999991" preserveAspectRatio="xMidYMid meet" version="1.0"><defs><clipPath id="clip-0"><path d="M 108.210938 115 L 243 115 L 243 277 L 108.210938 277 Z M 108.210938 115 " clip-rule="nonzero"/></clipPath><clipPath id="clip-1"><path d="M 132 97.769531 L 266.460938 97.769531 L 266.460938 260 L 132 260 Z M 132 97.769531 " clip-rule="nonzero"/></clipPath><clipPath id="clip-2"><path d="M 225 97.769531 L 266.460938 97.769531 L 266.460938 137 L 225 137 Z M 225 97.769531 " clip-rule="nonzero"/></clipPath></defs><path fill="rgb(67.449951%, 89.019775%, 90.19928%)" d="M 240.328125 275.070312 L 110.164062 275.070312 L 110.164062 117.363281 L 202.941406 117.363281 L 202.941406 152.519531 L 240.328125 152.519531 L 240.328125 275.070312 " fill-opacity="1" fill-rule="nonzero"/><g clip-path="url(#clip-0)"><path fill="rgb(16.079712%, 14.898682%, 14.898682%)" d="M 240.328125 275.070312 L 240.328125 273.160156 L 112.070312 273.160156 L 112.070312 119.28125 L 201.035156 119.28125 L 201.035156 152.519531 C 201.035156 153.027344 201.238281 153.523438 201.589844 153.878906 C 201.945312 154.226562 202.441406 154.433594 202.941406 154.433594 L 238.414062 154.433594 L 238.414062 275.070312 L 240.328125 275.070312 L 240.328125 273.160156 L 240.328125 275.070312 L 242.234375 275.070312 L 242.234375 152.519531 C 242.234375 152.015625 242.035156 151.519531 241.679688 151.164062 C 241.316406 150.808594 240.824219 150.609375 240.328125 150.609375 L 204.859375 150.609375 L 204.859375 117.363281 C 204.859375 116.859375 204.648438 116.367188 204.292969 116.011719 C 203.9375 115.65625 203.453125 115.453125 202.941406 115.453125 L 110.164062 115.453125 C 109.652344 115.453125 109.167969 115.65625 108.804688 116.011719 C 108.449219 116.367188 108.246094 116.859375 108.246094 117.363281 L 108.246094 275.070312 C 108.246094 275.582031 108.449219 276.066406 108.804688 276.425781 C 109.167969 276.789062 109.660156 276.988281 110.164062 276.988281 L 240.328125 276.988281 C 240.839844 276.988281 241.316406 276.789062 241.679688 276.425781 C 242.035156 276.066406 242.234375 275.589844 242.234375 275.070312 L 240.328125 275.070312 " fill-opacity="1" fill-rule="nonzero"/></g><path fill="rgb(100%, 100%, 100%)" d="M 264.429688 257.5 L 134.273438 257.5 L 134.273438 99.785156 L 227.054688 99.789062 L 227.054688 134.949219 L 264.429688 134.949219 L 264.429688 257.5 " fill-opacity="1" fill-rule="nonzero"/><g clip-path="url(#clip-1)"><path fill="rgb(16.079712%, 14.898682%, 14.898682%)" d="M 264.429688 257.5 L 264.429688 255.585938 L 136.179688 255.585938 L 136.179688 101.703125 L 225.144531 101.703125 L 225.144531 134.949219 C 225.144531 135.449219 225.347656 135.9375 225.703125 136.300781 C 226.058594 136.65625 226.550781 136.859375 227.054688 136.859375 L 262.523438 136.859375 L 262.523438 257.5 L 264.429688 257.5 L 264.429688 255.585938 L 264.429688 257.5 L 266.347656 257.5 L 266.347656 134.949219 C 266.347656 134.4375 266.144531 133.953125 265.78125 133.597656 C 265.425781 133.234375 264.941406 133.03125 264.429688 133.03125 L 228.96875 133.03125 L 228.96875 99.789062 C 228.96875 99.285156 228.761719 98.792969 228.40625 98.4375 C 228.050781 98.082031 227.554688 97.875 227.054688 97.875 L 134.273438 97.875 C 133.761719 97.875 133.269531 98.082031 132.914062 98.4375 C 132.558594 98.792969 132.359375 99.285156 132.359375 99.789062 L 132.359375 257.503906 C 132.359375 258 132.558594 258.496094 132.914062 258.851562 C 133.269531 259.207031 133.769531 259.40625 134.273438 259.40625 L 264.429688 259.40625 C 264.941406 259.40625 265.425781 259.207031 265.78125 258.851562 C 266.144531 258.488281 266.347656 258.007812 266.347656 257.496094 L 264.429688 257.496094 " fill-opacity="1" fill-rule="nonzero"/></g><path fill="rgb(56.858826%, 85.488892%, 86.669922%)" d="M 227.054688 99.789062 L 264.429688 134.949219 L 227.054688 134.949219 Z M 227.054688 99.789062 " fill-opacity="1" fill-rule="nonzero"/><g clip-path="url(#clip-2)"><path fill="rgb(16.079712%, 14.898682%, 14.898682%)" d="M 227.054688 99.789062 L 225.75 101.183594 L 259.605469 133.03125 L 228.96875 133.03125 L 228.96875 99.789062 L 227.054688 99.789062 L 225.75 101.183594 L 227.054688 99.789062 L 225.144531 99.789062 L 225.144531 134.949219 C 225.144531 135.449219 225.347656 135.9375 225.703125 136.300781 C 226.058594 136.65625 226.550781 136.859375 227.054688 136.859375 L 264.429688 136.859375 C 265.21875 136.859375 265.921875 136.378906 266.214844 135.652344 C 266.5 134.917969 266.316406 134.089844 265.742188 133.550781 L 228.367188 98.394531 C 227.808594 97.871094 226.992188 97.730469 226.296875 98.03125 C 225.601562 98.339844 225.144531 99.027344 225.144531 99.789062 L 227.054688 99.789062 " fill-opacity="1" fill-rule="nonzero"/></g><path fill="rgb(16.079712%, 14.898682%, 14.898682%)" d="M 214.226562 128.023438 L 149.410156 128.023438 C 148.359375 128.023438 147.5 128.878906 147.5 129.941406 C 147.5 131 148.359375 131.847656 149.410156 131.847656 L 214.226562 131.847656 C 215.285156 131.847656 216.140625 131 216.140625 129.941406 C 216.140625 128.878906 215.285156 128.023438 214.226562 128.023438 " fill-opacity="1" fill-rule="nonzero"/><path fill="rgb(16.079712%, 14.898682%, 14.898682%)" d="M 214.226562 148.050781 L 149.410156 148.050781 C 148.359375 148.050781 147.5 148.910156 147.5 149.96875 C 147.5 151.019531 148.359375 151.875 149.410156 151.875 L 214.226562 151.875 C 215.285156 151.875 216.140625 151.019531 216.140625 149.96875 C 216.140625 148.910156 215.285156 148.050781 214.226562 148.050781 " fill-opacity="1" fill-rule="nonzero"/><path fill="rgb(16.079712%, 14.898682%, 14.898682%)" d="M 240.328125 168.078125 L 149.410156 168.078125 C 148.359375 168.078125 147.5 168.9375 147.5 169.996094 C 147.5 171.046875 148.359375 171.902344 149.410156 171.902344 L 240.328125 171.902344 C 241.378906 171.902344 242.234375 171.046875 242.234375 169.996094 C 242.234375 168.9375 241.378906 168.078125 240.328125 168.078125 " fill-opacity="1" fill-rule="nonzero"/><path fill="rgb(16.079712%, 14.898682%, 14.898682%)" d="M 240.328125 188.105469 L 149.410156 188.105469 C 148.359375 188.105469 147.5 188.964844 147.5 190.023438 C 147.5 191.074219 148.359375 191.929688 149.410156 191.929688 L 240.328125 191.929688 C 241.378906 191.929688 242.234375 191.074219 242.234375 190.023438 C 242.234375 188.964844 241.378906 188.105469 240.328125 188.105469 " fill-opacity="1" fill-rule="nonzero"/><path fill="rgb(16.079712%, 14.898682%, 14.898682%)" d="M 240.328125 208.132812 L 149.410156 208.132812 C 148.359375 208.132812 147.5 208.992188 147.5 210.050781 C 147.5 211.101562 148.359375 211.957031 149.410156 211.957031 L 240.328125 211.957031 C 241.378906 211.957031 242.234375 211.101562 242.234375 210.050781 C 242.234375 208.992188 241.378906 208.132812 240.328125 208.132812 " fill-opacity="1" fill-rule="nonzero"/><path fill="rgb(16.079712%, 14.898682%, 14.898682%)" d="M 240.328125 228.160156 L 149.410156 228.160156 C 148.359375 228.160156 147.5 229.019531 147.5 230.078125 C 147.5 231.128906 148.359375 231.984375 149.410156 231.984375 L 240.328125 231.984375 C 241.378906 231.984375 242.234375 231.128906 242.234375 230.078125 C 242.234375 229.019531 241.378906 228.160156 240.328125 228.160156 " fill-opacity="1" fill-rule="nonzero"/></svg>