<?xml version="1.0" encoding="UTF-8"?><svg xmlns="http://www.w3.org/2000/svg" xmlns:xlink="http://www.w3.org/1999/xlink" contentScriptType="text/ecmascript" width="375" zoomAndPan="magnify" contentStyleType="text/css" viewBox="0 0 375 374.999991" height="374.999991" preserveAspectRatio="xMidYMid meet" version="1.0"><defs><clipPath id="clip-0"><path d="M 110.144531 101.375 L 264.355469 101.375 L 264.355469 165 L 110.144531 165 Z M 110.144531 101.375 " clip-rule="nonzero"/></clipPath><clipPath id="clip-1"><path d="M 110.144531 164 L 223 164 L 223 273.578125 L 110.144531 273.578125 Z M 110.144531 164 " clip-rule="nonzero"/></clipPath></defs><g clip-path="url(#clip-0)"><path fill="rgb(0%, 78.819275%, 100%)" d="M 129.71875 101.542969 L 244.820312 101.542969 C 245.460938 101.542969 246.101562 101.574219 246.738281 101.640625 C 247.378906 101.703125 248.011719 101.796875 248.640625 101.921875 C 249.269531 102.046875 249.890625 102.203125 250.503906 102.390625 C 251.117188 102.578125 251.71875 102.792969 252.3125 103.039062 C 252.902344 103.285156 253.484375 103.558594 254.046875 103.863281 C 254.613281 104.164062 255.164062 104.496094 255.695312 104.851562 C 256.230469 105.210938 256.742188 105.59375 257.238281 106 C 257.734375 106.410156 258.207031 106.839844 258.664062 107.292969 C 259.117188 107.75 259.546875 108.226562 259.953125 108.722656 C 260.359375 109.21875 260.742188 109.734375 261.097656 110.269531 C 261.453125 110.804688 261.78125 111.355469 262.085938 111.921875 C 262.386719 112.488281 262.660156 113.070312 262.90625 113.664062 C 263.152344 114.257812 263.367188 114.863281 263.554688 115.476562 C 263.738281 116.09375 263.894531 116.714844 264.019531 117.347656 C 264.144531 117.976562 264.238281 118.613281 264.300781 119.25 C 264.363281 119.890625 264.394531 120.53125 264.394531 121.175781 L 264.394531 145.132812 C 264.394531 145.777344 264.363281 146.417969 264.300781 147.058594 C 264.238281 147.699219 264.144531 148.335938 264.019531 148.964844 C 263.894531 149.59375 263.738281 150.21875 263.554688 150.832031 C 263.367188 151.449219 263.152344 152.054688 262.90625 152.648438 C 262.660156 153.242188 262.386719 153.820312 262.085938 154.390625 C 261.78125 154.957031 261.453125 155.507812 261.097656 156.042969 C 260.742188 156.574219 260.359375 157.09375 259.953125 157.589844 C 259.546875 158.085938 259.117188 158.5625 258.664062 159.015625 C 258.207031 159.472656 257.734375 159.902344 257.238281 160.308594 C 256.742188 160.71875 256.230469 161.101562 255.695312 161.457031 C 255.164062 161.816406 254.613281 162.144531 254.046875 162.449219 C 253.484375 162.75 252.902344 163.027344 252.3125 163.273438 C 251.71875 163.519531 251.117188 163.734375 250.503906 163.921875 C 249.890625 164.109375 249.269531 164.265625 248.640625 164.390625 C 248.011719 164.515625 247.378906 164.609375 246.738281 164.671875 C 246.101562 164.734375 245.460938 164.765625 244.820312 164.765625 L 110.144531 164.765625 L 110.144531 121.175781 C 110.144531 120.53125 110.175781 119.890625 110.238281 119.25 C 110.300781 118.613281 110.394531 117.976562 110.519531 117.347656 C 110.644531 116.714844 110.800781 116.09375 110.984375 115.476562 C 111.171875 114.863281 111.386719 114.257812 111.632812 113.664062 C 111.878906 113.070312 112.152344 112.488281 112.453125 111.921875 C 112.757812 111.355469 113.085938 110.804688 113.441406 110.269531 C 113.796875 109.734375 114.179688 109.21875 114.585938 108.722656 C 114.992188 108.226562 115.421875 107.75 115.875 107.292969 C 116.328125 106.839844 116.804688 106.410156 117.300781 106 C 117.796875 105.59375 118.308594 105.210938 118.84375 104.851562 C 119.375 104.496094 119.925781 104.164062 120.492188 103.863281 C 121.054688 103.558594 121.636719 103.285156 122.226562 103.039062 C 122.820312 102.792969 123.421875 102.578125 124.035156 102.390625 C 124.648438 102.203125 125.269531 102.046875 125.898438 101.921875 C 126.527344 101.796875 127.160156 101.703125 127.800781 101.640625 C 128.4375 101.574219 129.078125 101.542969 129.71875 101.542969 Z M 129.71875 101.542969 " fill-opacity="1" fill-rule="nonzero"/></g><g clip-path="url(#clip-1)"><path fill="rgb(0%, 78.819275%, 100%)" d="M 202.914062 164.765625 L 110.144531 164.765625 L 110.144531 273.410156 L 155.433594 227.972656 L 202.914062 227.972656 C 203.554688 227.972656 204.195312 227.941406 204.832031 227.878906 C 205.472656 227.816406 206.105469 227.722656 206.734375 227.597656 C 207.363281 227.46875 207.984375 227.3125 208.597656 227.128906 C 209.210938 226.941406 209.8125 226.726562 210.40625 226.480469 C 210.996094 226.234375 211.578125 225.957031 212.140625 225.65625 C 212.707031 225.351562 213.257812 225.023438 213.789062 224.664062 C 214.324219 224.308594 214.835938 223.925781 215.332031 223.515625 C 215.828125 223.109375 216.300781 222.675781 216.753906 222.222656 C 217.210938 221.769531 217.640625 221.292969 218.046875 220.796875 C 218.453125 220.296875 218.835938 219.78125 219.191406 219.246094 C 219.546875 218.714844 219.875 218.164062 220.179688 217.59375 C 220.480469 217.027344 220.753906 216.449219 221 215.855469 C 221.246094 215.261719 221.460938 214.65625 221.644531 214.039062 C 221.832031 213.425781 221.988281 212.800781 222.113281 212.171875 C 222.238281 211.539062 222.332031 210.90625 222.394531 210.265625 C 222.457031 209.625 222.488281 208.984375 222.488281 208.339844 L 222.488281 184.390625 C 222.488281 183.746094 222.457031 183.105469 222.394531 182.464844 C 222.332031 181.828125 222.238281 181.191406 222.113281 180.5625 C 221.988281 179.929688 221.832031 179.308594 221.644531 178.691406 C 221.457031 178.078125 221.242188 177.472656 220.996094 176.878906 C 220.75 176.285156 220.476562 175.707031 220.175781 175.140625 C 219.871094 174.574219 219.542969 174.023438 219.1875 173.488281 C 218.832031 172.953125 218.449219 172.4375 218.042969 171.941406 C 217.636719 171.445312 217.207031 170.96875 216.753906 170.515625 C 216.300781 170.058594 215.824219 169.628906 215.328125 169.21875 C 214.835938 168.8125 214.320312 168.429688 213.785156 168.074219 C 213.253906 167.714844 212.703125 167.386719 212.140625 167.082031 C 211.574219 166.78125 210.996094 166.507812 210.402344 166.261719 C 209.8125 166.015625 209.207031 165.796875 208.59375 165.613281 C 207.980469 165.425781 207.359375 165.269531 206.730469 165.144531 C 206.101562 165.019531 205.46875 164.925781 204.832031 164.859375 C 204.195312 164.796875 203.554688 164.765625 202.914062 164.765625 Z M 202.914062 164.765625 " fill-opacity="1" fill-rule="nonzero"/><path fill="rgb(32.159424%, 44.309998%, 100%)" d="M 202.914062 164.765625 L 129.71875 164.765625 C 129.078125 164.765625 128.4375 164.796875 127.800781 164.859375 C 127.160156 164.925781 126.527344 165.019531 125.898438 165.144531 C 125.269531 165.269531 124.648438 165.425781 124.035156 165.613281 C 123.421875 165.796875 122.820312 166.015625 122.226562 166.261719 C 121.636719 166.507812 121.054688 166.78125 120.492188 167.085938 C 119.925781 167.386719 119.375 167.71875 118.84375 168.074219 C 118.308594 168.433594 117.796875 168.816406 117.300781 169.222656 C 116.804688 169.628906 116.328125 170.0625 115.875 170.515625 C 115.421875 170.972656 114.992188 171.445312 114.585938 171.945312 C 114.179688 172.441406 113.796875 172.957031 113.441406 173.492188 C 113.085938 174.027344 112.757812 174.578125 112.453125 175.144531 C 112.152344 175.710938 111.878906 176.292969 111.632812 176.886719 C 111.386719 177.480469 111.171875 178.085938 110.984375 178.699219 C 110.800781 179.316406 110.644531 179.9375 110.519531 180.566406 C 110.394531 181.199219 110.300781 181.835938 110.238281 182.472656 C 110.175781 183.113281 110.144531 183.753906 110.144531 184.398438 L 110.144531 273.410156 L 147.828125 235.613281 C 149.035156 234.402344 150.347656 233.324219 151.761719 232.371094 C 153.179688 231.421875 154.675781 230.617188 156.253906 229.960938 C 157.828125 229.308594 159.453125 228.8125 161.125 228.476562 C 162.796875 228.140625 164.484375 227.972656 166.191406 227.972656 L 202.914062 227.972656 C 203.554688 227.972656 204.195312 227.941406 204.832031 227.878906 C 205.472656 227.816406 206.105469 227.722656 206.734375 227.597656 C 207.363281 227.46875 207.984375 227.3125 208.597656 227.128906 C 209.210938 226.941406 209.8125 226.726562 210.40625 226.480469 C 210.996094 226.234375 211.578125 225.957031 212.140625 225.65625 C 212.707031 225.351562 213.257812 225.023438 213.789062 224.664062 C 214.324219 224.308594 214.835938 223.925781 215.332031 223.515625 C 215.828125 223.109375 216.300781 222.675781 216.753906 222.222656 C 217.210938 221.769531 217.640625 221.292969 218.046875 220.796875 C 218.453125 220.296875 218.835938 219.78125 219.191406 219.246094 C 219.546875 218.714844 219.875 218.164062 220.179688 217.59375 C 220.480469 217.027344 220.753906 216.449219 221 215.855469 C 221.246094 215.261719 221.460938 214.65625 221.644531 214.039062 C 221.832031 213.425781 221.988281 212.800781 222.113281 212.171875 C 222.238281 211.539062 222.332031 210.90625 222.394531 210.265625 C 222.457031 209.625 222.488281 208.984375 222.488281 208.339844 L 222.488281 184.390625 C 222.488281 183.746094 222.457031 183.105469 222.394531 182.464844 C 222.332031 181.828125 222.238281 181.191406 222.113281 180.5625 C 221.988281 179.929688 221.832031 179.308594 221.644531 178.691406 C 221.457031 178.078125 221.242188 177.472656 220.996094 176.878906 C 220.75 176.285156 220.476562 175.707031 220.175781 175.140625 C 219.871094 174.574219 219.542969 174.023438 219.1875 173.488281 C 218.832031 172.953125 218.449219 172.4375 218.042969 171.941406 C 217.636719 171.445312 217.207031 170.96875 216.753906 170.515625 C 216.300781 170.058594 215.824219 169.628906 215.328125 169.21875 C 214.835938 168.8125 214.320312 168.429688 213.785156 168.074219 C 213.253906 167.714844 212.703125 167.386719 212.140625 167.082031 C 211.574219 166.78125 210.996094 166.507812 210.402344 166.261719 C 209.8125 166.015625 209.207031 165.796875 208.59375 165.613281 C 207.980469 165.425781 207.359375 165.269531 206.730469 165.144531 C 206.101562 165.019531 205.46875 164.925781 204.832031 164.859375 C 204.195312 164.796875 203.554688 164.765625 202.914062 164.765625 Z M 202.914062 164.765625 " fill-opacity="1" fill-rule="nonzero"/></g><path stroke-linecap="round" transform="matrix(6.373598, 0, 0, 6.425557, 139.169527, 197.052642)" fill="none" stroke-linejoin="miter" d="M 0.499865 -0.000289626 L 8.776195 -0.000289626 " stroke="rgb(10.5896%, 4.708862%, 15.289307%)" stroke-width="1" stroke-opacity="1" stroke-miterlimit="4"/><path stroke-linecap="round" transform="matrix(6.408202, 0, 0, 6.425557, 139.169527, 133.568137)" fill="none" stroke-linejoin="miter" d="M 0.500214 -0.000269327 L 14.543497 -0.000269327 " stroke="rgb(10.5896%, 4.708862%, 15.289307%)" stroke-width="1" stroke-opacity="1" stroke-miterlimit="4"/></svg>