<?xml version="1.0" encoding="UTF-8"?><svg xmlns="http://www.w3.org/2000/svg" xmlns:xlink="http://www.w3.org/1999/xlink" contentScriptType="text/ecmascript" width="375" zoomAndPan="magnify" contentStyleType="text/css" viewBox="0 0 375 374.999991" height="374.999991" preserveAspectRatio="xMidYMid meet" version="1.0"><defs><clipPath id="clip-0"><path d="M 88 101 L 286.476562 101 L 286.476562 272 L 88 272 Z M 88 101 " clip-rule="nonzero"/></clipPath><clipPath id="clip-1"><path d="M 70.476562 166 L 160 166 L 160 214 L 70.476562 214 Z M 70.476562 166 " clip-rule="nonzero"/></clipPath></defs><g clip-path="url(#clip-0)"><path fill="rgb(78.42865%, 92.939758%, 90.19928%)" d="M 278.101562 202.710938 C 278.824219 201.226562 279.46875 199.664062 280.023438 198.027344 C 286.386719 179.285156 276.765625 156.835938 256.507812 151.414062 C 254.320312 123.960938 234.988281 105.121094 213.160156 101.910156 C 188.175781 98.230469 165.289062 114.074219 157.671875 139.257812 C 148.492188 136.011719 139.550781 136.40625 131.117188 141.324219 C 127.292969 143.089844 123.796875 145.695312 120.65625 149.125 C 116.050781 154.15625 113.054688 160.503906 111.832031 167.199219 C 110.027344 167.484375 108.25 167.769531 106.578125 168.367188 C 96.816406 171.863281 90.65625 179.054688 88.96875 189.890625 C 87.917969 196.636719 90.039062 203.367188 91.222656 206.085938 C 95.898438 216.828125 106.738281 222.917969 117.753906 221.308594 C 118.300781 221.230469 119.097656 221.476562 119.570312 221.871094 C 120.152344 239.042969 128.503906 254.230469 141.035156 262.90625 C 161.140625 276.828125 187.007812 272.539062 203.324219 253.449219 C 210.316406 260.589844 218.636719 264.058594 228.414062 262.800781 C 238.132812 261.546875 245.679688 256.191406 251.1875 247.484375 C 253.730469 248.167969 256.144531 249.152344 258.636719 249.425781 C 268.402344 250.492188 276.265625 246.570312 282.148438 237.847656 C 282.351562 237.546875 282.640625 237.320312 282.890625 237.054688 C 283.730469 235.132812 284.570312 233.207031 285.410156 231.28125 C 285.785156 228.359375 286.449219 225.4375 286.480469 222.523438 C 286.578125 214.667969 283.359375 207.511719 278.101562 202.710938 Z M 278.101562 202.710938 " fill-opacity="1" fill-rule="nonzero"/></g><path fill="rgb(100%, 100%, 100%)" d="M 127.492188 148.320312 L 103.257812 148.320312 C 102.59375 148.320312 102.050781 147.78125 102.050781 147.113281 C 102.050781 146.449219 102.59375 145.910156 103.257812 145.910156 L 127.492188 145.910156 C 128.160156 145.910156 128.699219 146.449219 128.699219 147.113281 C 128.699219 147.78125 128.160156 148.320312 127.492188 148.320312 Z M 135.660156 147.113281 C 135.660156 146.449219 135.121094 145.910156 134.453125 145.910156 L 130.960938 145.910156 C 130.292969 145.910156 129.75 146.449219 129.75 147.113281 C 129.75 147.78125 130.292969 148.320312 130.960938 148.320312 L 134.453125 148.320312 C 135.121094 148.320312 135.660156 147.78125 135.660156 147.113281 Z M 145.457031 147.113281 C 145.457031 146.449219 144.917969 145.910156 144.25 145.910156 L 138.097656 145.910156 C 137.433594 145.910156 136.890625 146.449219 136.890625 147.113281 C 136.890625 147.78125 137.433594 148.320312 138.097656 148.320312 L 144.25 148.320312 C 144.917969 148.320312 145.457031 147.78125 145.457031 147.113281 Z M 145.457031 151.9375 C 145.457031 151.273438 144.917969 150.730469 144.25 150.730469 L 121.015625 150.730469 C 120.351562 150.730469 119.808594 151.273438 119.808594 151.9375 C 119.808594 152.605469 120.351562 153.144531 121.015625 153.144531 L 144.25 153.144531 C 144.917969 153.144531 145.457031 152.605469 145.457031 151.9375 Z M 118.039062 151.9375 C 118.039062 151.273438 117.5 150.730469 116.832031 150.730469 L 115.429688 150.730469 C 114.765625 150.730469 114.222656 151.273438 114.222656 151.9375 C 114.222656 152.605469 114.765625 153.144531 115.429688 153.144531 L 116.832031 153.144531 C 117.5 153.144531 118.039062 152.605469 118.039062 151.9375 Z M 112.300781 151.9375 C 112.300781 151.273438 111.757812 150.730469 111.09375 150.730469 L 107.570312 150.730469 C 106.90625 150.730469 106.363281 151.273438 106.363281 151.9375 C 106.363281 152.605469 106.90625 153.144531 107.570312 153.144531 L 111.09375 153.144531 C 111.757812 153.144531 112.300781 152.605469 112.300781 151.9375 Z M 134.371094 142.289062 C 134.371094 141.625 133.828125 141.085938 133.164062 141.085938 L 121.015625 141.085938 C 120.351562 141.085938 119.808594 141.625 119.808594 142.289062 C 119.808594 142.957031 120.351562 143.496094 121.015625 143.496094 L 133.164062 143.496094 C 133.832031 143.496094 134.371094 142.957031 134.371094 142.289062 Z M 134.371094 137.464844 C 134.371094 136.800781 133.828125 136.261719 133.164062 136.261719 L 130.125 136.261719 C 129.460938 136.261719 128.917969 136.800781 128.917969 137.464844 C 128.917969 138.132812 129.460938 138.671875 130.125 138.671875 L 133.164062 138.671875 C 133.832031 138.671875 134.371094 138.132812 134.371094 137.464844 Z M 126.472656 156.761719 C 126.472656 156.097656 125.933594 155.554688 125.265625 155.554688 L 121.015625 155.554688 C 120.351562 155.554688 119.808594 156.097656 119.808594 156.761719 C 119.808594 157.429688 120.351562 157.96875 121.015625 157.96875 L 125.265625 157.96875 C 125.933594 157.96875 126.472656 157.429688 126.472656 156.761719 Z M 267.253906 196.558594 L 243.019531 196.558594 C 242.351562 196.558594 241.8125 196.019531 241.8125 195.351562 C 241.8125 194.6875 242.351562 194.148438 243.019531 194.148438 L 267.253906 194.148438 C 267.921875 194.148438 268.460938 194.6875 268.460938 195.351562 C 268.460938 196.019531 267.921875 196.558594 267.253906 196.558594 Z M 275.421875 195.351562 C 275.421875 194.6875 274.878906 194.148438 274.214844 194.148438 L 270.71875 194.148438 C 270.050781 194.148438 269.511719 194.6875 269.511719 195.351562 C 269.511719 196.019531 270.050781 196.558594 270.71875 196.558594 L 274.214844 196.558594 C 274.882812 196.558594 275.421875 196.019531 275.421875 195.351562 Z M 285.21875 195.351562 C 285.21875 194.6875 284.675781 194.148438 284.011719 194.148438 L 277.859375 194.148438 C 277.191406 194.148438 276.652344 194.6875 276.652344 195.351562 C 276.652344 196.019531 277.191406 196.558594 277.859375 196.558594 L 284.011719 196.558594 C 284.675781 196.558594 285.21875 196.019531 285.21875 195.351562 Z M 280.324219 185.707031 C 280.324219 185.039062 279.78125 184.5 279.117188 184.5 L 255.882812 184.5 C 255.214844 184.5 254.675781 185.039062 254.675781 185.707031 C 254.675781 186.371094 255.214844 186.910156 255.882812 186.910156 L 279.117188 186.910156 C 279.78125 186.910156 280.324219 186.371094 280.324219 185.707031 Z M 252.90625 185.707031 C 252.90625 185.039062 252.363281 184.5 251.699219 184.5 L 250.296875 184.5 C 249.628906 184.5 249.085938 185.039062 249.085938 185.707031 C 249.085938 186.371094 249.628906 186.910156 250.296875 186.910156 L 251.699219 186.910156 C 252.367188 186.910156 252.90625 186.371094 252.90625 185.707031 Z M 247.164062 185.707031 C 247.164062 185.039062 246.621094 184.5 245.953125 184.5 L 242.4375 184.5 C 241.769531 184.5 241.226562 185.039062 241.226562 185.707031 C 241.226562 186.371094 241.769531 186.910156 242.4375 186.910156 L 245.953125 186.910156 C 246.625 186.910156 247.164062 186.371094 247.164062 185.707031 Z M 274.128906 190.53125 C 274.128906 189.863281 273.589844 189.324219 272.921875 189.324219 L 260.777344 189.324219 C 260.109375 189.324219 259.570312 189.863281 259.570312 190.53125 C 259.570312 191.195312 260.109375 191.734375 260.777344 191.734375 L 272.921875 191.734375 C 273.589844 191.734375 274.128906 191.195312 274.128906 190.53125 Z M 274.128906 185.707031 C 274.128906 185.039062 273.589844 184.5 272.921875 184.5 L 269.886719 184.5 C 269.21875 184.5 268.675781 185.039062 268.675781 185.707031 C 268.675781 186.371094 269.21875 186.910156 269.886719 186.910156 L 272.921875 186.910156 C 273.589844 186.910156 274.128906 186.371094 274.128906 185.707031 Z M 258.46875 190.53125 C 258.46875 189.863281 257.925781 189.324219 257.257812 189.324219 L 253.011719 189.324219 C 252.34375 189.324219 251.804688 189.863281 251.804688 190.53125 C 251.804688 191.195312 252.34375 191.734375 253.011719 191.734375 L 257.257812 191.734375 C 257.929688 191.734375 258.46875 191.195312 258.46875 190.53125 Z M 258.46875 190.53125 " fill-opacity="1" fill-rule="nonzero"/><path fill="rgb(99.21875%, 98.81897%, 93.728638%)" d="M 257.023438 146.601562 C 261.574219 146.601562 265.523438 146.601562 265.578125 146.601562 C 270.675781 146.601562 274.808594 142.5625 274.808594 137.582031 C 274.808594 133.234375 271.664062 129.609375 267.476562 128.753906 C 267.523438 128.375 267.558594 127.988281 267.558594 127.597656 C 267.558594 122.4375 263.277344 118.253906 258 118.253906 C 254.882812 118.253906 252.121094 119.71875 250.375 121.976562 C 249.929688 116.234375 244.679688 111.804688 238.535156 112.539062 C 234.046875 113.078125 230.328125 116.46875 229.503906 120.8125 C 229.238281 122.207031 229.265625 123.5625 229.53125 124.832031 C 228.328125 123.5625 226.609375 122.765625 224.703125 122.765625 C 221.207031 122.765625 218.355469 125.421875 218.128906 128.78125 C 216.542969 128.4375 214.816406 128.460938 213 129.125 C 209.527344 130.398438 207.050781 133.59375 206.90625 137.21875 C 206.703125 142.363281 210.910156 146.601562 216.132812 146.601562 C 216.527344 146.601562 217.921875 146.601562 218.242188 146.601562 L 237.414062 146.601562 M 241.375 146.601562 L 242.246094 146.601562 " fill-opacity="1" fill-rule="nonzero"/><path fill="rgb(27.839661%, 16.859436%, 16.079712%)" d="M 265.578125 147.808594 L 257.023438 147.808594 C 256.359375 147.808594 255.816406 147.269531 255.816406 146.601562 C 255.816406 145.9375 256.359375 145.398438 257.023438 145.398438 L 265.578125 145.398438 C 270 145.398438 273.601562 141.890625 273.601562 137.585938 C 273.601562 133.910156 270.925781 130.691406 267.234375 129.9375 C 266.613281 129.8125 266.195312 129.230469 266.277344 128.601562 C 266.320312 128.273438 266.347656 127.9375 266.347656 127.597656 C 266.347656 123.109375 262.601562 119.460938 257.996094 119.460938 C 255.359375 119.460938 252.925781 120.644531 251.328125 122.714844 C 251.023438 123.109375 250.503906 123.273438 250.023438 123.132812 C 249.546875 122.988281 249.207031 122.570312 249.167969 122.074219 C 248.976562 119.613281 247.800781 117.382812 245.859375 115.792969 C 243.855469 114.152344 241.304688 113.429688 238.675781 113.734375 C 234.699219 114.210938 231.414062 117.214844 230.6875 121.035156 C 230.460938 122.230469 230.46875 123.425781 230.707031 124.585938 C 230.816406 125.113281 230.5625 125.648438 230.085938 125.902344 C 229.609375 126.148438 229.023438 126.054688 228.648438 125.660156 C 227.617188 124.570312 226.210938 123.972656 224.699219 123.972656 C 221.875 123.972656 219.515625 126.121094 219.332031 128.859375 C 219.308594 129.210938 219.136719 129.53125 218.855469 129.742188 C 218.574219 129.953125 218.21875 130.03125 217.875 129.957031 C 216.332031 129.625 214.871094 129.722656 213.414062 130.257812 C 210.363281 131.375 208.234375 134.195312 208.109375 137.265625 C 208.027344 139.378906 208.792969 141.386719 210.273438 142.925781 C 211.808594 144.515625 213.886719 145.394531 216.128906 145.394531 L 237.40625 145.394531 C 238.074219 145.394531 238.613281 145.933594 238.613281 146.601562 C 238.613281 147.265625 238.074219 147.804688 237.40625 147.804688 L 216.128906 147.804688 C 213.265625 147.804688 210.496094 146.636719 208.53125 144.597656 C 206.589844 142.578125 205.585938 139.945312 205.695312 137.171875 C 205.859375 133.132812 208.625 129.445312 212.582031 127.992188 C 214.054688 127.449219 215.578125 127.257812 217.121094 127.402344 C 217.953125 124.035156 221.058594 121.558594 224.695312 121.558594 C 225.886719 121.558594 227.058594 121.828125 228.113281 122.335938 C 228.136719 121.753906 228.203125 121.167969 228.3125 120.582031 C 229.234375 115.738281 233.378906 111.9375 238.390625 111.335938 C 241.6875 110.933594 244.875 111.863281 247.390625 113.921875 C 249.199219 115.398438 250.480469 117.320312 251.128906 119.472656 C 253.039062 117.910156 255.441406 117.042969 257.992188 117.042969 C 263.933594 117.042969 268.761719 121.777344 268.761719 127.59375 C 268.761719 127.675781 268.761719 127.757812 268.761719 127.839844 C 273.023438 129.179688 276.015625 133.117188 276.015625 137.578125 C 276.019531 143.222656 271.335938 147.808594 265.578125 147.808594 Z M 242.246094 147.808594 L 241.375 147.808594 C 240.707031 147.808594 240.167969 147.269531 240.167969 146.601562 C 240.167969 145.9375 240.707031 145.398438 241.375 145.398438 L 242.246094 145.398438 C 242.914062 145.398438 243.453125 145.9375 243.453125 146.601562 C 243.453125 147.269531 242.914062 147.808594 242.246094 147.808594 Z M 242.246094 147.808594 " fill-opacity="1" fill-rule="nonzero"/><path fill="rgb(27.839661%, 16.859436%, 16.079712%)" d="M 261.453125 133.808594 C 261.410156 133.808594 261.367188 133.804688 261.320312 133.796875 C 260.996094 133.722656 260.789062 133.398438 260.863281 133.074219 C 260.953125 132.679688 261.089844 132.289062 261.273438 131.917969 C 262.734375 128.964844 266.765625 127.875 270.265625 129.488281 C 270.570312 129.628906 270.703125 129.988281 270.5625 130.289062 C 270.421875 130.59375 270.0625 130.71875 269.761719 130.582031 C 266.859375 129.242188 263.535156 130.082031 262.359375 132.449219 C 262.21875 132.734375 262.113281 133.035156 262.046875 133.335938 C 261.980469 133.621094 261.730469 133.808594 261.453125 133.808594 Z M 248.988281 147.808594 L 246.3125 147.808594 C 245.648438 147.808594 245.105469 147.269531 245.105469 146.601562 C 245.105469 145.9375 245.648438 145.398438 246.3125 145.398438 L 248.988281 145.398438 C 249.65625 145.398438 250.195312 145.9375 250.195312 146.601562 C 250.195312 147.269531 249.65625 147.808594 248.988281 147.808594 Z M 248.988281 147.808594 " fill-opacity="1" fill-rule="nonzero"/><path fill="rgb(98.039246%, 74.899292%, 50.979614%)" d="M 231.347656 225.992188 C 229.726562 224.847656 208.9375 217.574219 208.9375 217.574219 C 207.617188 217.21875 206.882812 216.136719 206.644531 214.929688 C 205.976562 211.515625 206.058594 203.300781 206.074219 201.835938 C 206.078125 201.71875 205.96875 201.632812 205.839844 201.632812 L 184.992188 201.632812 C 184.859375 201.632812 184.757812 201.722656 184.757812 201.835938 C 184.769531 203.285156 184.839844 211.335938 184.1875 214.929688 C 183.964844 216.140625 183.214844 217.21875 181.894531 217.574219 L 164.898438 223.472656 C 163.199219 223.945312 161.5625 224.617188 160.125 225.554688 C 152.625 230.453125 152.410156 238.472656 152.097656 239.964844 C 152.070312 240.09375 152.183594 240.207031 152.328125 240.207031 L 238.5 240.207031 C 238.648438 240.207031 238.757812 240.09375 238.730469 239.964844 C 238.433594 238.511719 238.320312 230.914062 231.347656 225.992188 Z M 231.347656 225.992188 " fill-opacity="1" fill-rule="nonzero"/><path fill="rgb(27.839661%, 16.859436%, 16.079712%)" d="M 205.84375 201.617188 C 205.972656 201.617188 206.078125 201.703125 206.078125 201.820312 C 206.058594 203.277344 205.980469 211.449219 206.648438 214.847656 C 206.882812 216.046875 207.617188 217.121094 208.9375 217.472656 C 208.9375 217.472656 229.730469 224.710938 231.351562 225.851562 C 238.324219 230.75 238.433594 238.308594 238.738281 239.746094 C 238.765625 239.875 238.652344 239.988281 238.507812 239.988281 L 152.332031 239.988281 C 152.183594 239.988281 152.078125 239.871094 152.101562 239.746094 C 152.414062 238.261719 152.628906 230.285156 160.132812 225.414062 C 161.566406 224.480469 163.203125 223.816406 164.902344 223.34375 L 181.898438 217.472656 C 183.21875 217.121094 183.972656 216.050781 184.191406 214.847656 C 184.84375 211.269531 184.777344 203.261719 184.761719 201.820312 C 184.757812 201.703125 184.867188 201.617188 184.992188 201.617188 L 205.84375 201.617188 M 205.84375 199.21875 L 184.992188 199.21875 C 184.28125 199.21875 183.59375 199.503906 183.097656 200 C 182.605469 200.496094 182.335938 201.148438 182.34375 201.847656 C 182.390625 206.253906 182.273438 211.875 181.8125 214.417969 C 181.699219 215.042969 181.375 215.125 181.269531 215.15625 L 181.183594 215.175781 L 181.101562 215.207031 L 164.175781 221.054688 C 162.140625 221.621094 160.335938 222.410156 158.804688 223.40625 C 151.222656 228.328125 150.164062 236.128906 149.816406 238.691406 C 149.78125 238.933594 149.757812 239.128906 149.734375 239.257812 C 149.574219 240.019531 149.765625 240.808594 150.265625 241.414062 C 150.769531 242.035156 151.519531 242.386719 152.328125 242.386719 L 238.5 242.386719 C 239.308594 242.386719 240.058594 242.035156 240.5625 241.417969 C 241.0625 240.808594 241.253906 240.023438 241.09375 239.257812 C 241.070312 239.125 241.046875 238.929688 241.011719 238.679688 C 240.664062 235.980469 239.746094 228.816406 232.738281 223.890625 C 231.089844 222.734375 217.617188 217.957031 209.730469 215.210938 L 209.648438 215.183594 L 209.558594 215.15625 C 209.457031 215.128906 209.140625 215.042969 209.011719 214.390625 C 208.539062 211.988281 208.433594 206.335938 208.488281 201.847656 C 208.496094 201.15625 208.230469 200.496094 207.734375 200 C 207.242188 199.503906 206.550781 199.21875 205.84375 199.21875 Z M 205.84375 199.21875 " fill-opacity="1" fill-rule="nonzero"/><path fill="rgb(99.21875%, 98.81897%, 93.728638%)" d="M 231.640625 225.761719 C 230.011719 224.601562 228.136719 223.746094 226.152344 223.191406 L 224.0625 222.628906 C 224.078125 222.625 224.089844 222.621094 224.101562 222.617188 L 213.210938 219.039062 C 207.683594 220.542969 201.757812 221.367188 195.574219 221.367188 C 189.394531 221.367188 183.464844 220.539062 177.941406 219.039062 L 167.050781 222.617188 C 167.0625 222.621094 167.078125 222.625 167.09375 222.628906 L 164.949219 223.203125 C 163.242188 223.683594 161.601562 224.363281 160.160156 225.316406 C 152.628906 230.296875 152.414062 238.441406 152.101562 239.957031 C 152.078125 240.085938 152.1875 240.203125 152.332031 240.203125 L 238.820312 240.203125 C 238.96875 240.203125 239.074219 240.082031 239.050781 239.957031 C 238.746094 238.488281 238.636719 230.769531 231.640625 225.761719 Z M 231.640625 225.761719 " fill-opacity="1" fill-rule="nonzero"/><path fill="rgb(59.21936%, 68.238831%, 78.039551%)" d="M 190.667969 232.453125 L 185.953125 222.1875 L 204.820312 222.1875 L 200.109375 232.453125 C 198.011719 236.078125 192.761719 236.078125 190.667969 232.453125 Z M 190.667969 232.453125 " fill-opacity="1" fill-rule="nonzero"/><path fill="rgb(91.758728%, 91.758728%, 90.979004%)" d="M 216.019531 219.960938 L 213.210938 219.039062 C 207.863281 220.492188 202.132812 221.292969 196.167969 221.347656 L 195.386719 222.3125 L 205.855469 235.273438 Z M 195.386719 222.3125 L 194.59375 221.332031 C 188.769531 221.25 183.171875 220.457031 177.941406 219.039062 L 174.820312 220.0625 L 184.917969 235.273438 Z M 195.386719 222.3125 " fill-opacity="1" fill-rule="nonzero"/><path fill="rgb(39.99939%, 47.44873%, 56.079102%)" d="M 190.28125 237.0625 L 189.792969 240.203125 L 200.980469 240.203125 L 200.496094 237.0625 C 198.222656 232.949219 192.550781 232.949219 190.28125 237.0625 Z M 190.28125 237.0625 " fill-opacity="1" fill-rule="nonzero"/><path fill="rgb(27.839661%, 16.859436%, 16.079712%)" d="M 152.332031 240.566406 C 152.265625 240.566406 152.195312 240.546875 152.132812 240.511719 C 151.96875 240.398438 151.917969 240.175781 152.03125 240.007812 L 163.6875 222.199219 C 163.796875 222.035156 164.023438 221.984375 164.191406 222.09375 C 164.359375 222.207031 164.40625 222.429688 164.292969 222.597656 L 152.636719 240.402344 C 152.566406 240.507812 152.449219 240.566406 152.332031 240.566406 Z M 155.921875 241.167969 C 155.855469 241.167969 155.785156 241.148438 155.726562 241.109375 C 155.558594 240.996094 155.507812 240.773438 155.621094 240.605469 L 168.640625 220.722656 C 168.746094 220.554688 168.976562 220.503906 169.140625 220.617188 C 169.308594 220.726562 169.355469 220.953125 169.246094 221.117188 L 156.226562 241.003906 C 156.15625 241.105469 156.042969 241.167969 155.921875 241.167969 Z M 160.363281 240.566406 C 160.296875 240.566406 160.226562 240.546875 160.164062 240.511719 C 160 240.398438 159.949219 240.175781 160.0625 240.007812 L 173.078125 220.125 C 173.1875 219.957031 173.414062 219.910156 173.582031 220.019531 C 173.75 220.128906 173.796875 220.351562 173.6875 220.519531 L 160.667969 240.402344 C 160.597656 240.507812 160.480469 240.566406 160.363281 240.566406 Z M 162.710938 242.976562 C 162.640625 242.976562 162.570312 242.957031 162.511719 242.917969 C 162.34375 242.804688 162.296875 242.582031 162.40625 242.414062 L 175.425781 222.53125 C 175.535156 222.363281 175.761719 222.3125 175.929688 222.425781 C 176.09375 222.535156 176.144531 222.761719 176.03125 222.925781 L 163.015625 242.8125 C 162.941406 242.914062 162.824219 242.976562 162.710938 242.976562 Z M 167.75 241.605469 C 167.683594 241.605469 167.613281 241.585938 167.550781 241.546875 C 167.386719 241.4375 167.335938 241.210938 167.449219 241.046875 L 176.695312 226.917969 C 176.804688 226.753906 177.03125 226.703125 177.199219 226.8125 C 177.367188 226.921875 177.414062 227.148438 177.304688 227.3125 L 168.054688 241.441406 C 167.980469 241.546875 167.867188 241.605469 167.75 241.605469 Z M 171.640625 242.050781 C 171.574219 242.050781 171.503906 242.03125 171.445312 241.992188 C 171.277344 241.878906 171.230469 241.65625 171.339844 241.488281 L 175.964844 234.425781 C 176.074219 234.257812 176.296875 234.210938 176.46875 234.320312 C 176.632812 234.429688 176.683594 234.652344 176.570312 234.820312 L 171.945312 241.886719 C 171.875 241.992188 171.761719 242.050781 171.640625 242.050781 Z M 171.640625 242.050781 " fill-opacity="1" fill-rule="nonzero"/><path fill="rgb(92.939758%, 73.728943%, 58.039856%)" d="M 225.390625 168.035156 C 225.109375 168.015625 224.820312 168.015625 224.519531 168.015625 C 222.1875 167.902344 221.523438 168.820312 221.632812 167.398438 C 221.820312 164.875 221.460938 154.636719 221.460938 154.121094 C 221.460938 143.511719 210.21875 134.863281 196.175781 134.382812 L 196.175781 134.351562 C 196.082031 134.355469 195.988281 134.363281 195.890625 134.367188 C 195.796875 134.363281 195.707031 134.351562 195.609375 134.351562 L 195.609375 134.382812 C 181.5625 134.863281 170.324219 143.511719 170.324219 154.121094 C 170.324219 154.636719 169.964844 164.875 170.152344 167.398438 C 170.261719 168.816406 169.59375 167.902344 167.265625 168.015625 C 166.964844 168.015625 166.675781 168.015625 166.394531 168.035156 C 163.839844 168.203125 161.769531 169.804688 161.328125 171.792969 C 161.640625 171.980469 162.804688 180.671875 164.6875 184.097656 C 165.742188 186.007812 167.386719 186.273438 169.074219 187.511719 C 170.007812 188.195312 170.191406 188.964844 170.445312 189.988281 C 171.394531 193.769531 174.023438 196.988281 176.90625 199.734375 C 178.328125 201.089844 187.777344 211.011719 195.890625 210.511719 C 204.046875 210.207031 213.457031 201.089844 214.878906 199.734375 C 217.761719 196.988281 220.390625 193.769531 221.339844 189.988281 C 221.59375 188.964844 221.773438 188.191406 222.710938 187.511719 C 224.398438 186.273438 226.042969 186.007812 227.097656 184.097656 C 228.980469 180.671875 230.144531 171.980469 230.457031 171.792969 C 230.015625 169.804688 227.945312 168.203125 225.390625 168.035156 Z M 225.390625 168.035156 " fill-opacity="1" fill-rule="nonzero"/><path fill="rgb(31.759644%, 17.248535%, 16.859436%)" d="M 196.039062 187.054688 C 197.6875 187.054688 199.285156 186.335938 200.316406 185.132812 C 200.421875 185.011719 200.40625 184.828125 200.285156 184.722656 C 200.164062 184.621094 199.984375 184.632812 199.875 184.753906 C 199.039062 185.710938 197.636719 186.261719 196.039062 186.261719 C 194.4375 186.261719 193.035156 185.710938 192.199219 184.753906 C 192.140625 184.6875 192.058594 184.652344 191.976562 184.652344 C 191.910156 184.652344 191.84375 184.679688 191.789062 184.722656 C 191.667969 184.828125 191.65625 185.011719 191.757812 185.132812 C 192.789062 186.335938 194.386719 187.054688 196.039062 187.054688 Z M 190.773438 162.390625 L 191.820312 160.382812 C 187.394531 159.347656 182.300781 159.511719 178.09375 160.8125 L 179.414062 162.769531 C 182.871094 161.632812 187.121094 161.488281 190.773438 162.390625 Z M 212.933594 162.390625 L 213.980469 160.382812 C 209.554688 159.347656 204.457031 159.511719 200.25 160.8125 L 201.570312 162.769531 C 205.03125 161.632812 209.28125 161.488281 212.933594 162.390625 Z M 184.402344 165.222656 C 183.339844 165.222656 182.40625 165.921875 181.871094 166.984375 C 182.003906 166.941406 182.140625 166.914062 182.289062 166.914062 C 183.160156 166.914062 183.867188 167.703125 183.867188 168.671875 C 183.867188 169.644531 183.160156 170.429688 182.289062 170.429688 C 182.003906 170.429688 181.742188 170.339844 181.507812 170.191406 C 181.882812 171.785156 183.035156 172.945312 184.40625 172.945312 C 186.074219 172.945312 187.429688 171.21875 187.429688 169.082031 C 187.429688 166.953125 186.074219 165.222656 184.402344 165.222656 Z M 207.542969 165.222656 C 206.632812 165.222656 205.824219 165.734375 205.269531 166.542969 C 205.441406 166.46875 205.628906 166.425781 205.824219 166.425781 C 206.699219 166.425781 207.402344 167.214844 207.402344 168.183594 C 207.402344 169.15625 206.695312 169.941406 205.824219 169.941406 C 205.285156 169.941406 204.808594 169.636719 204.523438 169.175781 C 204.5625 171.265625 205.898438 172.945312 207.542969 172.945312 C 209.210938 172.945312 210.566406 171.214844 210.566406 169.078125 C 210.566406 166.953125 209.210938 165.222656 207.542969 165.222656 Z M 208.824219 191.53125 C 208.949219 191.429688 208.96875 191.25 208.871094 191.125 C 208.769531 191.003906 208.585938 190.980469 208.460938 191.082031 C 205.734375 193.25 201.207031 194.496094 196.039062 194.496094 C 190.871094 194.496094 186.34375 193.25 183.617188 191.078125 C 183.5625 191.035156 183.5 191.015625 183.433594 191.015625 C 183.351562 191.015625 183.265625 191.054688 183.207031 191.125 C 183.109375 191.25 183.125 191.433594 183.25 191.53125 C 186.328125 194.042969 191.109375 195.542969 196.039062 195.542969 C 200.964844 195.542969 205.746094 194.042969 208.824219 191.53125 Z M 208.824219 191.53125 " fill-opacity="1" fill-rule="nonzero"/><path fill="rgb(82.749939%, 64.309692%, 49.01886%)" d="M 225.539062 179.390625 L 224.097656 179.230469 L 224.582031 174.9375 L 222.140625 175.996094 L 221.566406 174.667969 L 225.15625 173.113281 C 225.390625 173.011719 225.667969 173.042969 225.875 173.195312 C 226.082031 173.347656 226.191406 173.601562 226.164062 173.855469 Z M 167.027344 178.5625 L 166.402344 173.027344 C 166.375 172.773438 166.484375 172.519531 166.695312 172.367188 C 166.902344 172.214844 167.175781 172.175781 167.414062 172.285156 L 171.003906 173.839844 L 170.429688 175.167969 L 167.988281 174.113281 L 168.472656 178.402344 Z M 167.027344 178.5625 " fill-opacity="1" fill-rule="nonzero"/><path fill="rgb(27.839661%, 16.859436%, 16.079712%)" d="M 170.265625 189.273438 C 170.261719 189.273438 170.261719 189.273438 170.253906 189.273438 C 169.988281 189.269531 169.777344 189.046875 169.78125 188.785156 L 170.179688 167.925781 C 170.183594 167.660156 170.347656 167.433594 170.671875 167.453125 C 170.9375 167.460938 171.152344 167.679688 171.148438 167.945312 L 170.746094 188.800781 C 170.742188 189.066406 170.527344 189.273438 170.265625 189.273438 Z M 221.917969 189.273438 C 221.65625 189.273438 221.441406 189.066406 221.433594 188.800781 L 221.039062 167.945312 C 221.035156 167.679688 221.246094 167.460938 221.511719 167.453125 C 221.515625 167.453125 221.519531 167.453125 221.523438 167.453125 C 221.785156 167.453125 222 167.664062 222.003906 167.925781 L 222.402344 188.785156 C 222.40625 189.046875 222.195312 189.269531 221.929688 189.273438 C 221.921875 189.273438 221.921875 189.273438 221.917969 189.273438 Z M 211.648438 202.347656 C 207.316406 205.308594 199.15625 206.945312 197.582031 204.382812 C 196.425781 202.503906 194.757812 202.503906 193.601562 204.382812 C 191.882812 207.175781 183.140625 204.289062 178.660156 201.089844 C 177.402344 201.152344 178.632812 201.511719 177.640625 202.386719 C 183.496094 207.402344 194.9375 214.230469 195.558594 214.015625 C 195.558594 214.015625 195.589844 214.035156 195.59375 214.03125 L 195.625 214.015625 C 196.210938 214.027344 206.109375 208.3125 212.210938 203.441406 C 211.351562 202.402344 213.023438 202.371094 211.648438 202.347656 Z M 211.648438 202.347656 " fill-opacity="1" fill-rule="nonzero"/><path fill="rgb(27.839661%, 16.859436%, 16.079712%)" d="M 220.699219 140.855469 C 220.699219 140.855469 225.976562 141.921875 225.820312 147.113281 C 225.664062 152.304688 222.050781 174.863281 222.050781 174.863281 L 214.644531 151.691406 Z M 220.699219 140.855469 " fill-opacity="1" fill-rule="nonzero"/><path fill="rgb(27.839661%, 16.859436%, 16.079712%)" d="M 192.769531 126.355469 L 189.976562 122.539062 C 189.976562 122.539062 221.367188 119.117188 221.320312 136.125 C 221.261719 158.714844 200.835938 163.441406 200.835938 163.441406 L 202.386719 157.339844 L 190.128906 163.75 L 191.679688 160.085938 L 181.441406 163.75 L 185.164062 155.355469 L 176.011719 158.714844 C 176.011719 158.714844 172.421875 167.632812 171.101562 174.863281 C 171.101562 174.863281 163.980469 150.953125 168.5625 149.097656 L 166.855469 148.179688 L 169.027344 143.90625 L 165.769531 142.53125 L 168.5625 138.5625 L 167.320312 136.886719 L 173.527344 133.375 L 170.265625 131.695312 C 170.265625 131.695312 180.664062 123.148438 192.769531 126.355469 Z M 192.769531 126.355469 " fill-opacity="1" fill-rule="nonzero"/><path fill="rgb(39.99939%, 47.44873%, 56.079102%)" d="M 192.710938 166.351562 C 187.898438 160.5 169.765625 164.648438 169.746094 164.648438 C 170.082031 165.96875 170.367188 167.273438 170.632812 168.5625 C 171.976562 168.703125 172.058594 171.722656 172.191406 172.828125 C 172.84375 178.164062 176.421875 182.097656 183.953125 181.910156 C 191.496094 181.519531 193.261719 176.066406 193.574219 172.636719 C 193.910156 168.890625 192.707031 166.363281 192.710938 166.351562 Z M 191.851562 172.90625 C 191.460938 177.691406 188.519531 180.488281 183.765625 180.71875 C 183.285156 180.746094 182.816406 180.746094 182.371094 180.726562 C 174.875 180.714844 173.59375 174.167969 173.445312 170.027344 C 173.351562 167.65625 175.046875 165.625 177.4375 165.390625 C 178.8125 165.253906 180.363281 165.253906 182.152344 165.253906 C 187.753906 165.253906 190.1875 166.589844 190.839844 167.660156 C 191.21875 168.296875 192.066406 170.308594 191.851562 172.90625 Z M 198.019531 172.636719 C 198.332031 176.066406 200.097656 181.519531 207.640625 181.910156 C 215.171875 182.097656 218.75 178.164062 219.402344 172.828125 C 219.535156 171.722656 219.613281 168.703125 220.960938 168.5625 C 221.222656 167.273438 221.511719 165.96875 221.847656 164.648438 C 221.828125 164.648438 203.695312 160.5 198.882812 166.351562 C 198.882812 166.363281 197.679688 168.890625 198.019531 172.636719 Z M 200.753906 167.660156 C 201.402344 166.589844 203.839844 165.257812 209.441406 165.257812 C 211.226562 165.257812 212.777344 165.257812 214.152344 165.390625 C 216.546875 165.628906 218.242188 167.65625 218.144531 170.027344 C 217.996094 174.167969 216.714844 180.714844 209.222656 180.730469 C 208.773438 180.75 208.304688 180.746094 207.824219 180.71875 C 203.066406 180.492188 200.128906 177.691406 199.742188 172.910156 C 199.523438 170.308594 200.371094 168.296875 200.753906 167.660156 Z M 200.753906 167.660156 " fill-opacity="1" fill-rule="nonzero"/><path fill="rgb(39.99939%, 47.44873%, 56.079102%)" d="M 199.046875 170.949219 C 199.046875 170.949219 197.816406 169.980469 195.667969 169.980469 C 193.652344 169.980469 192.542969 170.949219 192.542969 170.949219 C 192.210938 170.042969 191.882812 169.136719 191.554688 168.230469 C 194.378906 168.230469 197.207031 168.230469 200.035156 168.230469 C 199.703125 169.136719 199.375 170.042969 199.046875 170.949219 Z M 199.046875 170.949219 " fill-opacity="1" fill-rule="nonzero"/><path fill="rgb(27.839661%, 16.859436%, 16.079712%)" d="M 226.5625 167.640625 C 225.457031 167.363281 224.28125 167.335938 223.039062 167.183594 C 223.039062 167.050781 222.722656 167.324219 222.722656 167.191406 C 221.9375 167.113281 221.519531 166.1875 221.507812 165.222656 C 221.484375 163.269531 221.242188 161.128906 221.417969 159.085938 C 221.46875 157.238281 221.136719 156.058594 220.78125 154.753906 C 220.835938 154.21875 220.871094 153.675781 220.871094 153.128906 C 220.871094 141.941406 209.296875 132.839844 195.074219 132.839844 C 180.851562 132.839844 169.277344 141.941406 169.277344 153.128906 C 169.277344 153.660156 169.308594 154.183594 169.363281 154.703125 C 169.222656 156.726562 169.039062 158.527344 169.125 160.738281 C 169.207031 162.699219 168.929688 164.152344 169.113281 166.738281 C 169.214844 168.195312 168.570312 167.257812 166.300781 167.371094 C 166.011719 167.371094 165.730469 167.371094 165.453125 167.390625 C 162.367188 167.605469 160.011719 170.078125 160.5 172.757812 C 161.070312 175.859375 161.746094 178.941406 162.515625 182.003906 C 163.277344 185.035156 164.777344 187.515625 168.417969 187.871094 C 168.886719 191.808594 169.722656 193.8125 172.210938 196.917969 C 175.589844 201.140625 179.597656 204.738281 184.441406 207.363281 C 184.945312 207.636719 187.921875 209.28125 187.921875 209.257812 C 192.988281 211.351562 197.847656 211.527344 202.972656 209.15625 C 202.972656 209.175781 202.972656 209.195312 202.972656 209.21875 C 203.003906 209.199219 206.203125 207.609375 206.804688 207.207031 C 209.238281 205.574219 211.714844 203.945312 213.855469 201.996094 C 218.09375 198.132812 222.09375 194.035156 222.511719 187.855469 C 226.109375 187.535156 227.597656 185.089844 228.367188 182.128906 C 229.117188 179.230469 229.664062 176.28125 230.269531 173.347656 C 230.851562 170.535156 229.484375 168.378906 226.5625 167.640625 Z M 168.40625 185.742188 C 166.605469 185.789062 165.410156 185.078125 164.78125 183.066406 C 163.914062 180.308594 162.625 174.558594 162.609375 174.507812 C 161.246094 170.3125 163.820312 168.449219 168.40625 169.332031 L 168.40625 171.765625 C 168.386719 171.765625 168.359375 173.789062 168.410156 173.800781 Z M 220.519531 188.621094 C 220.511719 189.707031 220.328125 190.933594 219.78125 191.859375 C 214.753906 200.355469 207.679688 206.535156 197.539062 208.988281 C 194.019531 209.839844 190.722656 208.617188 187.664062 207.152344 C 181.253906 204.085938 176.125 199.582031 172.203125 193.847656 C 170.921875 191.96875 170.234375 189.953125 170.332031 187.644531 C 170.464844 184.597656 170.363281 181.539062 170.363281 178.480469 C 170.363281 178.105469 170.394531 177.730469 170.359375 177.359375 C 169.605469 168.972656 171.351562 153.4375 171.351562 153.128906 C 171.351562 143.03125 181.992188 134.816406 195.074219 134.816406 C 208.152344 134.816406 219.222656 143.03125 219.222656 153.128906 C 219.222656 153.335938 219.304688 153.582031 219.296875 153.785156 C 220.195312 154.640625 219.53125 162.804688 220.460938 166.921875 C 220.566406 167.386719 220.550781 167.882812 220.550781 168.359375 C 220.554688 175.113281 220.585938 181.867188 220.519531 188.621094 Z M 228.578125 172.648438 C 227.914062 176.164062 227.101562 179.664062 226.113281 183.109375 C 225.554688 185.058594 224.503906 185.644531 222.507812 185.832031 L 222.507812 173.828125 C 222.511719 173.824219 222.519531 173.824219 222.519531 173.824219 C 222.519531 173.785156 222.511719 173.753906 222.511719 173.710938 L 222.511719 171.175781 C 222.496094 171.167969 222.480469 171.160156 222.46875 171.15625 L 222.46875 169.128906 C 223.539062 169.128906 224.539062 169.066406 225.527344 169.144531 C 227.523438 169.308594 228.9375 170.753906 228.578125 172.648438 Z M 228.578125 172.648438 " fill-opacity="1" fill-rule="nonzero"/><path fill="rgb(99.21875%, 98.81897%, 93.728638%)" d="M 118.484375 211.851562 C 118.484375 211.851562 146.730469 211.851562 146.902344 211.851562 C 153.425781 211.851562 158.710938 206.570312 158.710938 200.058594 C 158.710938 194.378906 154.6875 189.636719 149.328125 188.519531 C 149.390625 188.023438 149.429688 187.519531 149.429688 187.003906 C 149.429688 180.261719 143.953125 174.792969 137.199219 174.792969 C 133.207031 174.792969 129.675781 176.710938 127.445312 179.660156 C 126.875 172.152344 120.15625 166.359375 112.296875 167.320312 C 106.546875 168.019531 101.792969 172.457031 100.738281 178.140625 C 100.398438 179.960938 100.433594 181.730469 100.769531 183.390625 C 99.230469 181.734375 97.035156 180.691406 94.59375 180.691406 C 90.121094 180.691406 86.472656 184.167969 86.183594 188.554688 C 84.15625 188.109375 81.945312 188.136719 79.621094 189.011719 C 75.175781 190.675781 72.007812 194.855469 71.824219 199.589844 C 71.558594 206.316406 76.945312 211.855469 83.625 211.855469 C 84.132812 211.855469 85.917969 211.855469 86.328125 211.855469 L 110.851562 211.855469 " fill-opacity="1" fill-rule="nonzero"/><g clip-path="url(#clip-1)"><path fill="rgb(27.839661%, 16.859436%, 16.079712%)" d="M 146.902344 213.058594 L 118.484375 213.058594 C 117.816406 213.058594 117.273438 212.515625 117.273438 211.851562 C 117.273438 211.1875 117.816406 210.644531 118.484375 210.644531 L 146.902344 210.644531 C 152.746094 210.644531 157.503906 205.894531 157.503906 200.058594 C 157.503906 195.074219 153.964844 190.71875 149.082031 189.699219 C 148.464844 189.570312 148.054688 188.992188 148.128906 188.367188 C 148.1875 187.917969 148.226562 187.464844 148.226562 187.003906 C 148.226562 180.933594 143.28125 176 137.203125 176 C 133.726562 176 130.523438 177.597656 128.414062 180.386719 C 128.109375 180.785156 127.597656 180.957031 127.109375 180.8125 C 126.628906 180.671875 126.28125 180.25 126.246094 179.75 C 125.996094 176.429688 124.363281 173.308594 121.777344 171.191406 C 119.160156 169.046875 115.84375 168.097656 112.449219 168.515625 C 107.214844 169.15625 102.890625 173.203125 101.933594 178.359375 C 101.632812 179.96875 101.640625 181.578125 101.964844 183.148438 C 102.070312 183.679688 101.8125 184.214844 101.332031 184.460938 C 100.847656 184.710938 100.261719 184.605469 99.894531 184.210938 C 98.503906 182.71875 96.625 181.898438 94.601562 181.898438 C 90.8125 181.898438 87.648438 184.859375 87.398438 188.636719 C 87.375 188.988281 87.203125 189.308594 86.917969 189.519531 C 86.636719 189.734375 86.269531 189.808594 85.933594 189.734375 C 83.902344 189.289062 81.976562 189.414062 80.054688 190.136719 C 76.023438 191.648438 73.203125 195.464844 73.039062 199.632812 C 72.925781 202.546875 73.976562 205.304688 75.992188 207.394531 C 78.007812 209.492188 80.722656 210.648438 83.636719 210.648438 L 110.863281 210.648438 C 111.527344 210.648438 112.070312 211.1875 112.070312 211.855469 C 112.070312 212.519531 111.527344 213.058594 110.863281 213.058594 L 83.628906 213.058594 C 80.058594 213.058594 76.726562 211.640625 74.246094 209.070312 C 71.769531 206.5 70.480469 203.113281 70.621094 199.542969 C 70.824219 194.414062 74.269531 189.730469 79.199219 187.882812 C 81.132812 187.15625 83.128906 186.921875 85.164062 187.160156 C 86.074219 182.765625 89.988281 179.484375 94.597656 179.484375 C 96.25 179.484375 97.867188 179.917969 99.292969 180.714844 C 99.292969 179.785156 99.378906 178.851562 99.550781 177.917969 C 100.703125 171.742188 105.882812 166.890625 112.148438 166.121094 C 116.207031 165.628906 120.171875 166.765625 123.304688 169.324219 C 125.726562 171.3125 127.449219 174.03125 128.226562 177.027344 C 130.671875 174.816406 133.828125 173.589844 137.199219 173.589844 C 144.609375 173.589844 150.640625 179.609375 150.640625 187.003906 C 150.640625 187.207031 150.632812 187.40625 150.621094 187.605469 C 156.066406 189.226562 159.917969 194.300781 159.917969 200.058594 C 159.921875 207.230469 154.082031 213.058594 146.902344 213.058594 Z M 146.902344 213.058594 " fill-opacity="1" fill-rule="nonzero"/></g><path fill="rgb(99.21875%, 98.81897%, 93.728638%)" d="M 111.636719 185.878906 C 107.269531 185.59375 103.507812 188.605469 103.238281 192.605469 C 103.207031 193.101562 103.226562 193.59375 103.300781 194.066406 C 102.457031 193.117188 101.210938 192.472656 99.777344 192.378906 C 97.15625 192.207031 94.890625 193.933594 94.5625 196.285156 C 94.085938 196.15625 93.589844 196.070312 93.074219 196.035156 C 89.253906 195.785156 85.960938 198.421875 85.726562 201.921875 " fill-opacity="1" fill-rule="nonzero"/><path fill="rgb(27.839661%, 16.859436%, 16.079712%)" d="M 85.726562 202.523438 C 85.714844 202.523438 85.699219 202.523438 85.6875 202.523438 C 85.351562 202.5 85.101562 202.214844 85.125 201.878906 C 85.382812 198.050781 88.960938 195.152344 93.117188 195.429688 C 93.445312 195.453125 93.777344 195.492188 94.105469 195.558594 C 94.765625 193.222656 97.140625 191.589844 99.820312 191.777344 C 100.847656 191.84375 101.808594 192.164062 102.632812 192.699219 C 102.632812 192.65625 102.636719 192.609375 102.640625 192.566406 C 102.929688 188.234375 106.957031 184.945312 111.679688 185.277344 C 112.015625 185.300781 112.265625 185.585938 112.246094 185.921875 C 112.222656 186.253906 111.945312 186.535156 111.601562 186.480469 C 107.613281 186.226562 104.09375 188.980469 103.847656 192.648438 C 103.816406 193.089844 103.835938 193.539062 103.902344 193.980469 C 103.941406 194.242188 103.800781 194.503906 103.5625 194.617188 C 103.320312 194.730469 103.03125 194.671875 102.851562 194.472656 C 102.074219 193.589844 100.96875 193.0625 99.742188 192.984375 C 97.445312 192.902344 95.453125 194.324219 95.167969 196.367188 C 95.144531 196.539062 95.046875 196.695312 94.902344 196.792969 C 94.757812 196.886719 94.582031 196.914062 94.410156 196.867188 C 93.957031 196.746094 93.496094 196.667969 93.039062 196.632812 C 89.558594 196.414062 86.546875 198.796875 86.335938 201.960938 C 86.308594 202.28125 86.042969 202.523438 85.726562 202.523438 Z M 85.726562 202.523438 " fill-opacity="1" fill-rule="nonzero"/><path fill="rgb(99.21875%, 98.81897%, 93.728638%)" d="M 151.683594 189.902344 C 147.578125 187.96875 142.832031 189.339844 141.082031 192.957031 C 140.863281 193.40625 140.703125 193.871094 140.59375 194.34375 " fill-opacity="1" fill-rule="nonzero"/><path fill="rgb(27.839661%, 16.859436%, 16.079712%)" d="M 140.59375 194.945312 C 140.550781 194.945312 140.503906 194.941406 140.460938 194.929688 C 140.136719 194.855469 139.929688 194.535156 140.003906 194.207031 C 140.125 193.683594 140.300781 193.175781 140.535156 192.695312 C 142.425781 188.785156 147.546875 187.296875 151.941406 189.355469 C 152.242188 189.5 152.375 189.855469 152.230469 190.15625 C 152.089844 190.460938 151.726562 190.582031 151.425781 190.449219 C 147.625 188.652344 143.226562 189.898438 141.621094 193.21875 C 141.429688 193.617188 141.28125 194.039062 141.183594 194.476562 C 141.121094 194.757812 140.871094 194.945312 140.59375 194.945312 Z M 140.59375 194.945312 " fill-opacity="1" fill-rule="nonzero"/><path fill="rgb(27.839661%, 16.859436%, 16.079712%)" d="M 195.96875 222.105469 C 190.148438 222.105469 183.332031 221.160156 177.261719 219.515625 C 176.941406 219.425781 176.75 219.09375 176.835938 218.773438 C 176.921875 218.453125 177.253906 218.265625 177.578125 218.347656 C 183.546875 219.96875 190.253906 220.902344 195.96875 220.902344 C 198.214844 220.902344 200.480469 220.789062 202.710938 220.566406 C 203.054688 220.53125 203.339844 220.777344 203.371094 221.109375 C 203.402344 221.4375 203.164062 221.734375 202.828125 221.765625 C 200.5625 221.992188 198.253906 222.105469 195.96875 222.105469 Z M 195.96875 222.105469 " fill-opacity="1" fill-rule="nonzero"/><path fill="rgb(27.839661%, 16.859436%, 16.079712%)" d="M 207.15625 221.1875 C 206.867188 221.1875 206.609375 220.976562 206.5625 220.679688 C 206.507812 220.351562 206.730469 220.039062 207.058594 219.988281 C 207.515625 219.914062 207.96875 219.832031 208.421875 219.746094 C 208.832031 219.667969 209.246094 219.585938 209.660156 219.5 C 209.980469 219.449219 210.304688 219.640625 210.371094 219.96875 C 210.4375 220.296875 210.226562 220.613281 209.902344 220.679688 C 209.484375 220.765625 209.066406 220.847656 208.640625 220.929688 C 208.179688 221.015625 207.71875 221.097656 207.253906 221.179688 C 207.222656 221.183594 207.1875 221.1875 207.15625 221.1875 Z M 207.15625 221.1875 " fill-opacity="1" fill-rule="nonzero"/><path fill="rgb(27.839661%, 16.859436%, 16.079712%)" d="M 184.921875 235.875 C 184.914062 235.875 184.90625 235.875 184.898438 235.875 C 184.707031 235.871094 184.53125 235.773438 184.425781 235.617188 L 173.300781 219.515625 C 173.109375 219.242188 173.179688 218.867188 173.453125 218.675781 C 173.726562 218.488281 174.101562 218.554688 174.292969 218.828125 L 184.960938 234.261719 L 194.921875 221.933594 C 195.152344 221.652344 195.632812 221.652344 195.863281 221.933594 L 205.8125 234.253906 L 215.882812 219.136719 C 216.066406 218.855469 216.4375 218.785156 216.71875 218.96875 C 216.996094 219.152344 217.070312 219.527344 216.886719 219.804688 L 206.363281 235.605469 C 206.257812 235.765625 206.082031 235.863281 205.886719 235.875 C 205.703125 235.839844 205.511719 235.800781 205.390625 235.648438 L 195.386719 223.273438 L 185.390625 235.652344 C 185.277344 235.792969 185.105469 235.875 184.921875 235.875 Z M 184.921875 235.875 " fill-opacity="1" fill-rule="nonzero"/><path fill="rgb(27.839661%, 16.859436%, 16.079712%)" d="M 189.425781 242.238281 C 189.382812 242.238281 189.34375 242.230469 189.304688 242.226562 C 188.976562 242.160156 188.765625 241.839844 188.832031 241.515625 L 189.660156 237.375 C 189.675781 237.296875 190.019531 235.585938 191.695312 234.433594 C 190.75 233.628906 189.5 232.410156 188.980469 230 C 188.914062 229.671875 189.121094 229.351562 189.445312 229.285156 C 189.78125 229.207031 190.09375 229.421875 190.164062 229.746094 C 190.644531 231.980469 191.851562 232.992188 192.734375 233.726562 C 192.882812 233.851562 193.023438 233.972656 193.148438 234.082031 C 193.300781 234.21875 193.371094 234.421875 193.339844 234.621094 C 193.308594 234.824219 193.179688 234.992188 192.992188 235.078125 C 191.1875 235.902344 190.847656 237.582031 190.84375 237.597656 L 190.015625 241.746094 C 189.957031 242.035156 189.703125 242.238281 189.425781 242.238281 Z M 189.425781 242.238281 " fill-opacity="1" fill-rule="nonzero"/><path fill="rgb(27.839661%, 16.859436%, 16.079712%)" d="M 201.277344 242.238281 C 200.992188 242.238281 200.742188 242.039062 200.683594 241.753906 L 199.851562 237.609375 C 199.839844 237.539062 199.488281 235.894531 197.703125 235.082031 C 197.515625 235 197.386719 234.828125 197.355469 234.628906 C 197.324219 234.425781 197.394531 234.222656 197.546875 234.085938 C 197.671875 233.972656 197.8125 233.855469 197.960938 233.734375 C 198.84375 232.996094 200.050781 231.984375 200.53125 229.75 C 200.601562 229.425781 200.917969 229.207031 201.25 229.289062 C 201.574219 229.355469 201.78125 229.679688 201.710938 230.007812 C 201.195312 232.414062 199.945312 233.632812 199 234.4375 C 200.675781 235.589844 201.019531 237.304688 201.035156 237.386719 L 201.863281 241.519531 C 201.929688 241.847656 201.71875 242.164062 201.390625 242.230469 C 201.355469 242.230469 201.316406 242.238281 201.277344 242.238281 Z M 201.277344 242.238281 " fill-opacity="1" fill-rule="nonzero"/><path fill="rgb(68.629456%, 67.059326%, 83.139038%)" d="M 236.660156 271.613281 C 234.683594 271.054688 232.78125 270.277344 230.972656 269.300781 C 231.980469 265.925781 231.203125 262.882812 228.671875 260.425781 C 226.945312 258.746094 224.941406 257.894531 222.722656 257.894531 C 221.796875 257.894531 220.839844 258.046875 219.863281 258.347656 C 218.859375 256.558594 218.058594 254.679688 217.480469 252.730469 C 220.675781 251.035156 222.308594 248.285156 222.226562 244.699219 C 222.144531 241.265625 220.472656 238.65625 217.371094 237.078125 C 217.925781 235.117188 218.691406 233.226562 219.667969 231.425781 C 220.6875 231.753906 221.679688 231.917969 222.636719 231.917969 C 224.917969 231.917969 226.964844 231.011719 228.71875 229.234375 C 231.203125 226.710938 231.898438 223.628906 230.769531 220.246094 C 232.53125 219.269531 234.417969 218.480469 236.40625 217.894531 C 238.042969 221.097656 240.722656 222.777344 244.222656 222.777344 C 244.488281 222.777344 244.769531 222.769531 245.050781 222.746094 C 248.304688 222.503906 250.757812 220.824219 252.222656 217.855469 C 254.171875 218.414062 256.0625 219.195312 257.867188 220.183594 C 256.75 223.617188 257.484375 226.71875 260.027344 229.226562 C 261.773438 230.945312 263.789062 231.816406 266.027344 231.816406 C 267.003906 231.816406 268.015625 231.644531 269.042969 231.304688 C 269.824219 232.742188 270.882812 235.257812 271.367188 236.933594 C 268.125 238.621094 266.46875 241.382812 266.542969 244.988281 C 266.613281 248.378906 268.253906 250.980469 271.3125 252.59375 C 270.742188 254.546875 269.949219 256.433594 268.953125 258.226562 C 267.976562 257.941406 267.027344 257.792969 266.117188 257.792969 C 263.589844 257.792969 261.386719 258.867188 259.566406 260.984375 C 257.535156 263.34375 256.972656 266.167969 257.902344 269.226562 C 256.105469 270.214844 254.203125 271 252.226562 271.574219 C 250.640625 268.617188 247.769531 266.890625 244.363281 266.890625 C 241.089844 266.9375 238.21875 268.75 236.660156 271.613281 Z M 244.355469 237.964844 C 240.625 237.964844 237.578125 240.984375 237.5625 244.691406 C 237.546875 248.417969 240.582031 251.46875 244.328125 251.488281 C 248.039062 251.464844 251.015625 248.582031 251.121094 244.921875 C 251.175781 243.085938 250.503906 241.351562 249.230469 240.03125 C 247.960938 238.714844 246.253906 237.980469 244.421875 237.964844 C 244.417969 237.964844 244.359375 237.964844 244.355469 237.964844 Z M 244.355469 237.964844 " fill-opacity="1" fill-rule="nonzero"/><path fill="rgb(27.839661%, 16.859436%, 16.079712%)" d="M 253.007812 219.875 C 253.988281 220.214844 254.949219 220.613281 255.886719 221.066406 C 255.1875 224.570312 256.1875 227.820312 258.835938 230.429688 C 260.878906 232.441406 263.363281 233.507812 266.023438 233.507812 C 266.71875 233.507812 267.429688 233.433594 268.144531 233.289062 C 268.5625 234.1875 268.996094 235.246094 269.335938 236.179688 C 266.339844 238.207031 264.765625 241.265625 264.84375 245.023438 C 264.917969 248.542969 266.472656 251.414062 269.289062 253.347656 C 268.941406 254.347656 268.53125 255.328125 268.058594 256.285156 C 267.398438 256.167969 266.746094 256.105469 266.109375 256.105469 C 263.109375 256.105469 260.402344 257.414062 258.277344 259.886719 C 256.1875 262.316406 255.394531 265.242188 255.949219 268.335938 C 254.976562 268.808594 253.976562 269.222656 252.957031 269.574219 C 250.980469 266.828125 247.871094 265.203125 244.363281 265.203125 C 244.347656 265.203125 244.230469 265.203125 244.21875 265.203125 C 240.898438 265.246094 237.863281 266.910156 235.917969 269.621094 C 234.890625 269.277344 233.894531 268.871094 232.917969 268.398438 C 233.523438 264.953125 232.480469 261.765625 229.847656 259.210938 C 227.820312 257.246094 225.355469 256.203125 222.71875 256.203125 C 222.066406 256.203125 221.402344 256.265625 220.734375 256.394531 C 220.257812 255.441406 219.847656 254.472656 219.496094 253.476562 C 222.457031 251.441406 224 248.394531 223.914062 244.65625 C 223.828125 241.089844 222.246094 238.207031 219.378906 236.296875 C 219.714844 235.308594 220.105469 234.339844 220.558594 233.394531 C 221.257812 233.53125 221.949219 233.601562 222.632812 233.601562 C 225.34375 233.601562 227.867188 232.496094 229.921875 230.410156 C 232.503906 227.792969 233.464844 224.566406 232.75 221.113281 C 233.679688 220.660156 234.640625 220.257812 235.632812 219.910156 C 237.605469 222.871094 240.570312 224.464844 244.222656 224.464844 C 244.53125 224.464844 244.847656 224.453125 245.171875 224.429688 C 248.523438 224.1875 251.222656 222.597656 253.007812 219.875 M 244.332031 253.175781 C 244.339844 253.175781 244.347656 253.175781 244.355469 253.175781 C 248.964844 253.148438 252.679688 249.546875 252.8125 244.972656 C 252.875 242.683594 252.039062 240.511719 250.449219 238.863281 C 248.859375 237.21875 246.726562 236.300781 244.355469 236.277344 C 239.699219 236.277344 235.890625 240.046875 235.871094 244.683594 C 235.863281 246.945312 236.734375 249.074219 238.332031 250.675781 C 239.929688 252.277344 242.054688 253.164062 244.320312 253.175781 C 244.324219 253.175781 244.328125 253.175781 244.332031 253.175781 M 251.222656 215.855469 C 250.167969 218.914062 248.125 220.832031 244.921875 221.066406 C 244.683594 221.085938 244.449219 221.09375 244.222656 221.09375 C 240.824219 221.09375 238.585938 219.167969 237.363281 215.886719 C 234.25 216.644531 231.347656 217.847656 228.65625 219.53125 C 230.136719 222.65625 229.945312 225.574219 227.507812 228.046875 C 226.039062 229.542969 224.394531 230.226562 222.632812 230.226562 C 221.441406 230.226562 220.199219 229.917969 218.925781 229.328125 C 217.273438 232.039062 216.089844 234.941406 215.378906 238.046875 C 218.546875 239.207031 220.453125 241.375 220.535156 244.738281 C 220.617188 248.238281 218.730469 250.527344 215.476562 251.789062 C 216.222656 254.871094 217.445312 257.738281 219.128906 260.421875 C 220.363281 259.875 221.570312 259.582031 222.722656 259.582031 C 224.4375 259.582031 226.046875 260.226562 227.492188 261.632812 C 229.960938 264.027344 230.257812 266.921875 228.894531 270.050781 C 231.613281 271.703125 234.5 272.882812 237.597656 273.59375 C 237.644531 273.5 237.679688 273.445312 237.699219 273.386719 C 238.820312 270.480469 241.359375 268.617188 244.261719 268.582031 C 244.296875 268.582031 244.332031 268.582031 244.363281 268.582031 C 247.425781 268.582031 249.957031 270.304688 251.132812 273.226562 C 251.21875 273.441406 251.316406 273.511719 251.453125 273.511719 C 251.519531 273.511719 251.597656 273.492188 251.6875 273.472656 C 254.484375 272.765625 257.125 271.675781 259.605469 270.203125 C 259.742188 270.121094 259.867188 270.027344 259.976562 269.957031 C 258.714844 267.121094 258.832031 264.429688 260.847656 262.085938 C 262.375 260.304688 264.15625 259.484375 266.113281 259.484375 C 267.253906 259.484375 268.457031 259.761719 269.703125 260.292969 C 271.375 257.597656 272.578125 254.722656 273.308594 251.644531 C 270.1875 250.453125 268.296875 248.316406 268.226562 244.953125 C 268.152344 241.40625 270.078125 239.15625 273.300781 237.914062 C 273.105469 235.972656 270.84375 230.527344 269.699219 229.230469 C 268.441406 229.816406 267.210938 230.128906 266.027344 230.128906 C 264.300781 230.128906 262.675781 229.464844 261.214844 228.023438 C 258.707031 225.554688 258.511719 222.601562 259.96875 219.449219 C 257.25 217.78125 254.335938 216.578125 251.222656 215.855469 Z M 244.335938 249.796875 C 241.511719 249.785156 239.238281 247.503906 239.253906 244.699219 C 239.265625 241.898438 241.539062 239.652344 244.359375 239.652344 C 244.375 239.652344 244.390625 239.652344 244.40625 239.652344 C 247.246094 239.679688 249.511719 242.03125 249.429688 244.875 C 249.355469 247.519531 247.199219 249.78125 244.335938 249.796875 Z M 244.335938 249.796875 " fill-opacity="1" fill-rule="nonzero"/><path fill="rgb(46.669006%, 46.669006%, 67.059326%)" d="M 262.171875 240.195312 C 259.664062 230.367188 249.652344 224.425781 239.804688 226.929688 C 229.960938 229.433594 224.007812 239.429688 226.515625 249.257812 C 229.023438 259.085938 239.035156 265.027344 248.882812 262.527344 C 258.730469 260.023438 264.679688 250.023438 262.171875 240.195312 Z M 247.96875 258.941406 C 240.105469 260.941406 232.109375 256.195312 230.105469 248.34375 C 228.105469 240.492188 232.855469 232.507812 240.722656 230.511719 C 248.585938 228.511719 256.582031 233.257812 258.582031 241.109375 C 260.582031 248.960938 255.832031 256.941406 247.96875 258.941406 Z M 247.96875 258.941406 " fill-opacity="1" fill-rule="nonzero"/><path fill="rgb(27.839661%, 16.859436%, 16.079712%)" d="M 229.449219 245.328125 C 229.113281 245.328125 228.84375 245.058594 228.84375 244.726562 C 228.84375 236.195312 235.792969 229.257812 244.34375 229.257812 C 246.648438 229.257812 248.863281 229.746094 250.925781 230.714844 C 251.230469 230.859375 251.359375 231.21875 251.214844 231.519531 C 251.074219 231.820312 250.714844 231.949219 250.410156 231.808594 C 248.511719 230.914062 246.46875 230.460938 244.34375 230.460938 C 236.464844 230.460938 230.050781 236.859375 230.050781 244.722656 C 230.050781 245.058594 229.78125 245.328125 229.449219 245.328125 Z M 244.34375 260.199219 C 237.535156 260.199219 231.589844 255.84375 229.550781 249.363281 C 229.453125 249.046875 229.628906 248.707031 229.949219 248.609375 C 230.269531 248.515625 230.605469 248.6875 230.703125 249.003906 C 232.582031 254.980469 238.0625 258.996094 244.339844 258.996094 C 247.566406 258.996094 250.613281 257.945312 253.148438 255.964844 C 253.410156 255.757812 253.789062 255.804688 253.996094 256.066406 C 254.199219 256.324219 254.15625 256.707031 253.894531 256.910156 C 251.144531 259.0625 247.84375 260.199219 244.34375 260.199219 Z M 255.984375 254.605469 C 255.851562 254.605469 255.71875 254.5625 255.605469 254.472656 C 255.34375 254.265625 255.304688 253.886719 255.511719 253.625 C 257.554688 251.070312 258.632812 247.996094 258.632812 244.722656 C 258.632812 242.929688 258.304688 241.179688 257.65625 239.527344 C 257.535156 239.21875 257.6875 238.871094 258 238.75 C 258.3125 238.625 258.660156 238.78125 258.78125 239.09375 C 259.484375 240.882812 259.84375 242.78125 259.84375 244.726562 C 259.84375 248.277344 258.671875 251.613281 256.457031 254.382812 C 256.335938 254.527344 256.160156 254.605469 255.984375 254.605469 Z M 255.984375 254.605469 " fill-opacity="1" fill-rule="nonzero"/><path fill="rgb(27.839661%, 16.859436%, 16.079712%)" d="M 256.613281 236.898438 C 256.421875 236.898438 256.230469 236.808594 256.113281 236.640625 C 255.34375 235.523438 254.414062 234.519531 253.355469 233.660156 C 253.097656 233.449219 253.054688 233.070312 253.269531 232.808594 C 253.480469 232.550781 253.859375 232.515625 254.117188 232.722656 C 255.269531 233.65625 256.273438 234.742188 257.109375 235.957031 C 257.296875 236.230469 257.226562 236.609375 256.953125 236.796875 C 256.851562 236.863281 256.734375 236.898438 256.613281 236.898438 Z M 256.613281 236.898438 " fill-opacity="1" fill-rule="nonzero"/></svg>