<?xml version="1.0" encoding="UTF-8"?><svg xmlns="http://www.w3.org/2000/svg" xmlns:xlink="http://www.w3.org/1999/xlink" contentScriptType="text/ecmascript" width="375" zoomAndPan="magnify" contentStyleType="text/css" viewBox="0 0 375 374.999991" height="374.999991" preserveAspectRatio="xMidYMid meet" version="1.0"><defs><clipPath id="clip-0"><path d="M 97.769531 97.769531 L 277.019531 97.769531 L 277.019531 277.019531 L 97.769531 277.019531 Z M 97.769531 97.769531 " clip-rule="nonzero"/></clipPath></defs><g clip-path="url(#clip-0)"><path stroke-linecap="butt" transform="matrix(0.0773296, 0, 0, -0.0773296, 22.991348, 351.796765)" fill="none" stroke-linejoin="miter" d="M 992.16218 2125.993836 C 992.16218 1499.818598 1499.78036 992.200418 2125.955598 992.200418 C 2752.130836 992.149903 3259.749017 1499.818598 3259.749017 2125.993836 C 3259.749017 2752.219588 2752.130836 3259.888283 2125.955598 3259.888283 C 1499.729846 3259.888283 992.16218 2752.219588 992.16218 2125.993836 Z M 992.16218 2125.993836 " stroke="rgb(13.328552%, 29.798889%, 55.288696%)" stroke-width="50" stroke-opacity="1" stroke-miterlimit="10"/></g><path fill="rgb(42.749023%, 70.979309%, 90.589905%)" d="M 222.972656 240.84375 L 239.746094 240.84375 L 239.746094 133.945312 L 222.972656 133.945312 L 222.972656 240.84375 " fill-opacity="1" fill-rule="nonzero"/><path stroke-linecap="butt" transform="matrix(0.0773296, 0, 0, -0.0773296, 22.991348, 351.796765)" fill="none" stroke-linejoin="round" d="M 2586.090339 1434.806697 L 2802.998734 1434.806697 L 2802.998734 2817.180976 L 2586.090339 2817.180976 Z M 2586.090339 1434.806697 " stroke="rgb(13.328552%, 29.798889%, 55.288696%)" stroke-width="50" stroke-opacity="1" stroke-miterlimit="10"/><path fill="rgb(42.749023%, 70.979309%, 90.589905%)" d="M 192.730469 240.84375 L 209.503906 240.84375 L 209.503906 148.613281 L 192.730469 148.613281 L 192.730469 240.84375 " fill-opacity="1" fill-rule="nonzero"/><path stroke-linecap="butt" transform="matrix(0.0773296, 0, 0, -0.0773296, 22.991348, 351.796765)" fill="none" stroke-linejoin="round" d="M 2195.008644 1434.806697 L 2411.917039 1434.806697 L 2411.917039 2627.499787 L 2195.008644 2627.499787 Z M 2195.008644 1434.806697 " stroke="rgb(13.328552%, 29.798889%, 55.288696%)" stroke-width="50" stroke-opacity="1" stroke-miterlimit="10"/><path fill="rgb(42.749023%, 70.979309%, 90.589905%)" d="M 162.492188 240.84375 L 179.257812 240.84375 L 179.257812 168.882812 L 162.492188 168.882812 L 162.492188 240.84375 " fill-opacity="1" fill-rule="nonzero"/><path stroke-linecap="butt" transform="matrix(0.0773296, 0, 0, -0.0773296, 22.991348, 351.796765)" fill="none" stroke-linejoin="round" d="M 1803.977463 1434.806697 L 2020.78483 1434.806697 L 2020.78483 2365.381094 L 1803.977463 2365.381094 Z M 1803.977463 1434.806697 " stroke="rgb(13.328552%, 29.798889%, 55.288696%)" stroke-width="50" stroke-opacity="1" stroke-miterlimit="10"/><path fill="rgb(42.749023%, 70.979309%, 90.589905%)" d="M 132.25 240.84375 L 149.023438 240.84375 L 149.023438 187.394531 L 132.25 187.394531 L 132.25 240.84375 " fill-opacity="1" fill-rule="nonzero"/><path stroke-linecap="butt" transform="matrix(0.0773296, 0, 0, -0.0773296, 22.991348, 351.796765)" fill="none" stroke-linejoin="round" d="M 1412.895768 1434.806697 L 1629.804163 1434.806697 L 1629.804163 2125.993836 L 1412.895768 2125.993836 Z M 1412.895768 1434.806697 " stroke="rgb(13.328552%, 29.798889%, 55.288696%)" stroke-width="50" stroke-opacity="1" stroke-miterlimit="10"/></svg>