<?xml version="1.0" encoding="UTF-8"?><svg xmlns="http://www.w3.org/2000/svg" xmlns:xlink="http://www.w3.org/1999/xlink" contentScriptType="text/ecmascript" width="375" zoomAndPan="magnify" contentStyleType="text/css" viewBox="0 0 375 374.999991" height="374.999991" preserveAspectRatio="xMidYMid meet" version="1.0"><defs><clipPath id="clip-0"><path d="M 101.246094 80.160156 L 306.746094 80.160156 L 306.746094 303.554688 L 101.246094 303.554688 Z M 101.246094 80.160156 " clip-rule="nonzero"/></clipPath></defs><rect x="-37.5" width="450" fill="rgb(100%, 100%, 100%)" y="-37.499999" height="449.999989" fill-opacity="1"/><rect x="-37.5" width="450" fill="rgb(100%, 100%, 100%)" y="-37.499999" height="449.999989" fill-opacity="1"/><rect x="-37.5" width="450" fill="rgb(21.179199%, 22.349548%, 24.708557%)" y="-37.499999" height="449.999989" fill-opacity="1"/><path fill="rgb(100%, 74.119568%, 29.019165%)" d="M 187.5 68.261719 C 185.546875 68.261719 183.597656 68.308594 181.648438 68.40625 C 179.699219 68.5 177.753906 68.644531 175.8125 68.835938 C 173.871094 69.027344 171.933594 69.265625 170.003906 69.554688 C 168.074219 69.839844 166.152344 70.171875 164.238281 70.554688 C 162.324219 70.933594 160.421875 71.363281 158.527344 71.835938 C 156.632812 72.308594 154.753906 72.828125 152.886719 73.398438 C 151.019531 73.964844 149.167969 74.574219 147.328125 75.230469 C 145.492188 75.890625 143.671875 76.59375 141.871094 77.339844 C 140.066406 78.085938 138.285156 78.875 136.519531 79.710938 C 134.753906 80.542969 133.011719 81.421875 131.292969 82.339844 C 129.570312 83.261719 127.875 84.222656 126.199219 85.226562 C 124.527344 86.230469 122.878906 87.273438 121.253906 88.355469 C 119.632812 89.441406 118.039062 90.566406 116.46875 91.726562 C 114.902344 92.890625 113.363281 94.089844 111.855469 95.328125 C 110.347656 96.566406 108.871094 97.839844 107.425781 99.152344 C 105.980469 100.460938 104.566406 101.804688 103.1875 103.1875 C 101.804688 104.566406 100.460938 105.980469 99.152344 107.425781 C 97.839844 108.871094 96.566406 110.347656 95.328125 111.855469 C 94.089844 113.363281 92.890625 114.902344 91.726562 116.46875 C 90.566406 118.039062 89.441406 119.632812 88.355469 121.253906 C 87.273438 122.878906 86.230469 124.527344 85.226562 126.199219 C 84.222656 127.875 83.261719 129.570312 82.339844 131.292969 C 81.421875 133.011719 80.542969 134.753906 79.710938 136.519531 C 78.875 138.285156 78.085938 140.066406 77.339844 141.871094 C 76.59375 143.671875 75.890625 145.492188 75.230469 147.328125 C 74.574219 149.167969 73.964844 151.019531 73.398438 152.886719 C 72.828125 154.753906 72.308594 156.632812 71.835938 158.527344 C 71.363281 160.421875 70.933594 162.324219 70.554688 164.238281 C 70.171875 166.152344 69.839844 168.074219 69.554688 170.003906 C 69.265625 171.933594 69.027344 173.871094 68.835938 175.8125 C 68.644531 177.753906 68.5 179.699219 68.40625 181.648438 C 68.308594 183.597656 68.261719 185.546875 68.261719 187.5 C 68.261719 189.453125 68.308594 191.402344 68.40625 193.351562 C 68.5 195.300781 68.644531 197.246094 68.835938 199.1875 C 69.027344 201.128906 69.265625 203.066406 69.554688 204.996094 C 69.839844 206.925781 70.171875 208.847656 70.554688 210.761719 C 70.933594 212.675781 71.363281 214.578125 71.835938 216.472656 C 72.308594 218.367188 72.828125 220.246094 73.398438 222.113281 C 73.964844 223.980469 74.574219 225.832031 75.230469 227.671875 C 75.890625 229.507812 76.59375 231.328125 77.339844 233.128906 C 78.085938 234.933594 78.875 236.714844 79.710938 238.480469 C 80.542969 240.246094 81.421875 241.988281 82.339844 243.707031 C 83.261719 245.429688 84.222656 247.125 85.226562 248.800781 C 86.230469 250.472656 87.273438 252.121094 88.355469 253.746094 C 89.441406 255.367188 90.566406 256.960938 91.726562 258.53125 C 92.890625 260.097656 94.089844 261.636719 95.328125 263.144531 C 96.566406 264.652344 97.839844 266.128906 99.152344 267.574219 C 100.460938 269.019531 101.804688 270.433594 103.1875 271.8125 C 104.566406 273.195312 105.980469 274.539062 107.425781 275.847656 C 108.871094 277.160156 110.347656 278.433594 111.855469 279.671875 C 113.363281 280.910156 114.902344 282.109375 116.46875 283.273438 C 118.039062 284.433594 119.632812 285.558594 121.253906 286.640625 C 122.878906 287.726562 124.527344 288.769531 126.199219 289.773438 C 127.875 290.777344 129.570312 291.738281 131.292969 292.660156 C 133.011719 293.578125 134.753906 294.457031 136.519531 295.289062 C 138.285156 296.125 140.066406 296.914062 141.871094 297.660156 C 143.671875 298.40625 145.492188 299.109375 147.328125 299.769531 C 149.167969 300.425781 151.019531 301.035156 152.886719 301.601562 C 154.753906 302.167969 156.632812 302.691406 158.527344 303.164062 C 160.421875 303.636719 162.324219 304.066406 164.238281 304.445312 C 166.152344 304.828125 168.074219 305.160156 170.003906 305.445312 C 171.933594 305.734375 173.871094 305.972656 175.8125 306.164062 C 177.753906 306.355469 179.699219 306.5 181.648438 306.59375 C 183.597656 306.691406 185.546875 306.738281 187.5 306.738281 C 189.453125 306.738281 191.402344 306.691406 193.351562 306.59375 C 195.300781 306.5 197.246094 306.355469 199.1875 306.164062 C 201.128906 305.972656 203.066406 305.734375 204.996094 305.445312 C 206.925781 305.160156 208.847656 304.828125 210.761719 304.445312 C 212.675781 304.066406 214.578125 303.636719 216.472656 303.164062 C 218.367188 302.691406 220.246094 302.167969 222.113281 301.601562 C 223.980469 301.035156 225.832031 300.425781 227.671875 299.765625 C 229.507812 299.109375 231.328125 298.40625 233.128906 297.660156 C 234.933594 296.914062 236.714844 296.125 238.480469 295.289062 C 240.246094 294.457031 241.988281 293.578125 243.707031 292.660156 C 245.429688 291.738281 247.125 290.777344 248.800781 289.773438 C 250.472656 288.769531 252.121094 287.726562 253.746094 286.640625 C 255.367188 285.558594 256.960938 284.433594 258.53125 283.273438 C 260.097656 282.109375 261.636719 280.910156 263.144531 279.671875 C 264.652344 278.433594 266.128906 277.160156 267.574219 275.847656 C 269.019531 274.539062 270.433594 273.195312 271.8125 271.8125 C 273.195312 270.433594 274.539062 269.019531 275.847656 267.574219 C 277.160156 266.128906 278.433594 264.652344 279.671875 263.144531 C 280.910156 261.636719 282.109375 260.097656 283.273438 258.53125 C 284.433594 256.960938 285.558594 255.367188 286.640625 253.746094 C 287.726562 252.121094 288.769531 250.472656 289.773438 248.800781 C 290.777344 247.125 291.738281 245.429688 292.660156 243.707031 C 293.578125 241.988281 294.457031 240.246094 295.289062 238.480469 C 296.125 236.714844 296.914062 234.933594 297.660156 233.128906 C 298.40625 231.328125 299.109375 229.507812 299.769531 227.671875 C 300.425781 225.832031 301.035156 223.980469 301.601562 222.113281 C 302.167969 220.246094 302.691406 218.367188 303.164062 216.472656 C 303.636719 214.578125 304.066406 212.675781 304.445312 210.761719 C 304.828125 208.847656 305.160156 206.925781 305.445312 204.996094 C 305.734375 203.066406 305.972656 201.128906 306.164062 199.1875 C 306.355469 197.246094 306.5 195.300781 306.59375 193.351562 C 306.691406 191.402344 306.738281 189.453125 306.738281 187.5 C 306.738281 185.546875 306.691406 183.597656 306.59375 181.648438 C 306.5 179.699219 306.355469 177.753906 306.164062 175.8125 C 305.972656 173.871094 305.734375 171.933594 305.445312 170.003906 C 305.160156 168.074219 304.828125 166.152344 304.445312 164.238281 C 304.066406 162.324219 303.636719 160.421875 303.164062 158.527344 C 302.691406 156.632812 302.167969 154.753906 301.601562 152.886719 C 301.035156 151.019531 300.425781 149.167969 299.769531 147.328125 C 299.109375 145.492188 298.40625 143.671875 297.660156 141.871094 C 296.914062 140.066406 296.125 138.285156 295.289062 136.519531 C 294.457031 134.753906 293.578125 133.011719 292.660156 131.292969 C 291.738281 129.570312 290.777344 127.875 289.773438 126.199219 C 288.769531 124.527344 287.726562 122.878906 286.640625 121.253906 C 285.558594 119.632812 284.433594 118.039062 283.273438 116.46875 C 282.109375 114.902344 280.910156 113.363281 279.671875 111.855469 C 278.433594 110.347656 277.160156 108.871094 275.847656 107.425781 C 274.539062 105.980469 273.195312 104.566406 271.8125 103.1875 C 270.433594 101.804688 269.019531 100.460938 267.574219 99.152344 C 266.128906 97.839844 264.652344 96.566406 263.144531 95.328125 C 261.636719 94.089844 260.097656 92.890625 258.53125 91.726562 C 256.960938 90.566406 255.367188 89.441406 253.746094 88.355469 C 252.121094 87.273438 250.472656 86.230469 248.800781 85.226562 C 247.125 84.222656 245.429688 83.261719 243.707031 82.339844 C 241.988281 81.421875 240.246094 80.542969 238.480469 79.710938 C 236.714844 78.875 234.933594 78.085938 233.128906 77.339844 C 231.328125 76.59375 229.507812 75.890625 227.671875 75.230469 C 225.832031 74.574219 223.980469 73.964844 222.113281 73.398438 C 220.246094 72.828125 218.367188 72.308594 216.472656 71.835938 C 214.578125 71.363281 212.675781 70.933594 210.761719 70.554688 C 208.847656 70.171875 206.925781 69.839844 204.996094 69.554688 C 203.066406 69.265625 201.128906 69.027344 199.1875 68.835938 C 197.246094 68.644531 195.300781 68.5 193.351562 68.40625 C 191.402344 68.308594 189.453125 68.261719 187.5 68.261719 Z M 187.5 68.261719 " fill-opacity="1" fill-rule="nonzero"/><g clip-path="url(#clip-0)"><path fill="rgb(21.179199%, 22.349548%, 24.708557%)" d="M 306.007812 155.058594 C 304.167969 149.863281 299.257812 145.382812 293.75 145.382812 L 242.429688 145.382812 L 286.195312 103.726562 C 289.976562 100.039062 291.144531 93.796875 289.152344 88.898438 C 287.160156 84.007812 282.402344 80.175781 277.117188 80.175781 L 188.386719 80.175781 C 184.324219 80.175781 180.5 83.210938 178.042969 86.4375 L 103.898438 184.441406 C 100.910156 188.367188 100.40625 193.335938 102.597656 197.765625 C 104.792969 202.1875 109.304688 204.664062 114.242188 204.664062 L 164.308594 204.664062 C 164.480469 204.664062 164.660156 205.84375 164.851562 206.125 L 121.195312 283.835938 C 118.136719 289.265625 119.363281 296.253906 124.121094 300.28125 C 126.539062 302.328125 129.53125 303.433594 132.515625 303.433594 C 135.410156 303.433594 138.296875 302.511719 140.675781 300.582031 L 301.917969 169.980469 C 306.203125 166.515625 307.835938 160.246094 306.007812 155.058594 Z M 306.007812 155.058594 " fill-opacity="1" fill-rule="nonzero"/></g></svg>